<?xml version="1.0" standalone="no"?>
<!DOCTYPE svg PUBLIC "-//W3C//DTD SVG 1.1//EN" "http://www.w3.org/Graphics/SVG/1.1/DTD/svg11.dtd" >
<svg xmlns="http://www.w3.org/2000/svg">
<metadata>
This is a custom SVG webfont generated by Font Squirrel.
Copyright   :  August 1993 Night Graphics Created by Victor Lubarsky
</metadata>
<defs>
<font id="OptimaCyrRegular" horiz-adv-x="1139" >
<font-face units-per-em="2048" ascent="1638" descent="-410" />
<missing-glyph horiz-adv-x="569" />
<glyph unicode=" "  horiz-adv-x="569" />
<glyph unicode="&#x09;" horiz-adv-x="569" />
<glyph unicode="&#xa0;" horiz-adv-x="569" />
<glyph unicode="!" horiz-adv-x="682" d="M217 100q0 52 38 87.5t87 35.5q34 0 60.5 -16.5t43.5 -45t17 -61.5q0 -47 -36.5 -85t-84.5 -38q-49 0 -87 36.5t-38 86.5zM244 1221v61q0 143 96 143q98 0 98 -143v-30q0 -17 -2 -31l-74 -867h-40z" />
<glyph unicode="&#x22;" horiz-adv-x="682" d="M102 1311q0 114 72 114q38 0 54 -26.5t16 -83.5v-23v-16q-2 -10 -2 -14v-347q0 -65 -14.5 -93.5t-53.5 -28.5t-54.5 25.5t-15.5 96.5v347zM436 1311q0 114 72 114q38 0 54 -26.5t16 -83.5q0 -33 -3 -53v-347q0 -69 -14.5 -95.5t-52.5 -26.5q-39 0 -54.5 25.5t-15.5 96.5 v347z" />
<glyph unicode="#" d="M68 442v115h237l43 272h-225v115h242l63 416h119l-64 -416h273l61 416h119l-62 -416h199v-115h-215l-41 -272h205v-115h-223l-64 -442h-119l64 442h-274l-68 -442h-119l68 442h-219zM424 557h274l41 272h-272z" />
<glyph unicode="$" d="M154 84l12 42l12 44l9 45l3 45h23q66 -101 139.5 -151t184.5 -50v574q-109 42 -173.5 75t-120 106t-55.5 185q0 107 45 187t122 125t182 63v158l24 -4l17 -2l18 2l22 4v-152q68 0 154.5 -17t155.5 -77q-31 -67 -54 -162h-22q-38 84 -97 129t-137 45v-514l117 -47 q65 -24 120 -63q54 -35 91 -98.5t37 -153.5q0 -118 -47 -208.5t-130.5 -148t-187.5 -75.5v-228l-20 5l-20 2l-15 -1l-14 -3l-12 -3v215q-126 0 -219 21t-164 86zM348 1063q0 -57 21 -102q12 -24 22.5 -39t27.5 -30q26 -24 64 -44l54 -27v471q-85 -18 -137 -79.5t-52 -149.5z M618 72q61 12 106.5 49t72 95t26.5 128q0 61 -19.5 102t-49.5 68q-26 23 -61 43l-75 39v-524z" />
<glyph unicode="%" horiz-adv-x="1821" d="M92 1034q0 93 44.5 171.5t123.5 123.5t174 45q92 0 164.5 -43t111 -119t38.5 -168q0 -89 -43.5 -169.5t-119.5 -129.5t-167 -49q-51 0 -92 10t-80 34q-74 45 -114 122q-20 39 -30 81t-10 91zM240 1008q0 -102 39 -181t137 -79q52 0 89 30t57.5 74t29.5 97q4 26 6 50t2 52 q0 272 -168 272q-109 0 -150.5 -94.5t-41.5 -220.5zM459 -68l762 1493l45 -4l49 4l-762 -1493l-49 5q-4 0 -16 -1t-29 -4zM1059 311q0 95 45 173.5t123 124.5t174 46q93 0 164 -44t110 -121.5t39 -167.5q0 -93 -44 -173t-128 -131q-25 -13 -75 -27t-83 -14q-97 0 -171 43.5 t-114 118.5q-20 39 -30 80.5t-10 91.5zM1206 289q0 -103 40.5 -181.5t135.5 -78.5q53 0 91 30q34 29 56 75q18 40 28 95t10 103q0 272 -168 272q-108 0 -150.5 -94t-42.5 -221z" />
<glyph unicode="&#x26;" horiz-adv-x="1479" d="M147 313q0 49 11 91t36 84q48 79 126.5 141.5t185.5 115.5l12 7q-38 59 -63.5 101t-43.5 77q-30 60 -30 141q0 92 39.5 160.5t113 105.5t162.5 37q119 0 195 -58t76 -157q0 -81 -39 -147.5t-91.5 -111t-148.5 -112.5l73 -95l97 -125q26 -32 47.5 -58.5t34.5 -40.5 l109 -123q57 83 127 198q60 101 116 206q26 -45 78 -84q-140 -213 -276 -375l256 -295q-43 4 -71 6t-54 2l-54 -2l-63 -4q-40 57 -70.5 98.5t-58.5 73.5q-54 -58 -126 -105t-152.5 -70.5t-163.5 -23.5q-170 0 -280 93.5t-110 248.5zM313 360q0 -83 39.5 -152.5t109.5 -108 t152 -38.5q105 0 191 52.5t133 99.5q-240 295 -385 489l-9 -5l-7 -5q-106 -66 -165 -144t-59 -188zM524 1126q0 -116 129 -295q99 70 154 144.5t55 171.5q0 48 -20 86.5t-58 62.5q-17 11 -38.5 17t-47.5 6q-84 0 -129 -54.5t-45 -138.5z" />
<glyph unicode="'" horiz-adv-x="569" d="M213 1311q0 57 16.5 85.5t55.5 28.5q40 0 54.5 -26t14.5 -84v-23v-16q-2 -10 -2 -14v-347q0 -69 -14.5 -95.5t-52.5 -26.5q-39 0 -54.5 25.5t-15.5 96.5v347z" />
<glyph unicode="(" horiz-adv-x="569" d="M127 672q0 161 36 313.5t109.5 290.5t180.5 256l41 -39q-129 -181 -182.5 -390t-53.5 -462q0 -22 3 -70t3 -75q0 -33 6 -74q2 -12 13.5 -83.5t28.5 -134t42.5 -123t52 -107.5t87.5 -142l-41 -41q-90 105 -148.5 199t-101.5 206q-20 55 -34 108t-25 117q-17 121 -17 251z " />
<glyph unicode=")" horiz-adv-x="569" d="M76 -168q21 33 45 73q14 24 38 65q34 60 57.5 116t41.5 125q14 53 28 134q11 69 19 151q0 25 3 73t3 72q0 126 -12 239t-36.5 212t-72.5 205q-44 101 -114 196l41 39q54 -59 97 -120.5t82 -134.5q72 -136 109 -291.5t37 -313.5q0 -182 -33 -332t-103.5 -282.5 t-188.5 -266.5z" />
<glyph unicode="*" horiz-adv-x="909" d="M109 1174q41 47 59 104l258 -184l-29 315q26 0 55.5 0.5t61.5 1.5l-31 -321l256 190q27 -61 62 -104l-289 -132l287 -126q-25 -36 -58 -103l-260 182l35 -317l-30 1l-35 1h-29q-13 0 -25 -2l29 311l-250 -182l-22 37q-12 25 -25 43l-12 20l286 133z" />
<glyph unicode="+" horiz-adv-x="1241" d="M104 455v131h451v448h131v-448h451v-131h-451v-455h-131v455h-451z" />
<glyph unicode="," horiz-adv-x="569" d="M94 -330l144 455q16 54 35 84q18 33 59 33q33 0 58.5 -20.5t25.5 -55.5q0 -17 -7 -37l-15 -35l-23 -37l-242 -401z" />
<glyph unicode="-" horiz-adv-x="682" d="M84 389v127h512v-127h-512z" />
<glyph unicode="." horiz-adv-x="569" d="M162 100q0 52 38 87.5t87 35.5q33 0 59 -16.5t44 -45t18 -61.5q0 -47 -36.5 -85t-84.5 -38q-49 0 -87 36.5t-38 86.5z" />
<glyph unicode="/" horiz-adv-x="569" d="M-68 -209l584 1741l53 -4h28q16 3 24 4l-584 -1741l-47 4z" />
<glyph unicode="0" d="M90 641q0 134 22.5 264.5t76.5 234.5t152.5 167t244.5 63q157 0 259 -76t153 -228.5t51 -377.5q0 -166 -33.5 -298.5t-96 -223t-152.5 -140t-194 -49.5q-135 0 -228.5 49t-148 136t-80.5 211.5t-26 267.5zM258 684q0 -265 58.5 -454t261.5 -189q106 0 174 77 q34 39 58 93.5t39.5 127.5t23.5 160t8 189q0 64 -4 124.5t-13 115.5q-16 110 -53 195.5t-94.5 134.5t-134.5 49q-46 0 -86 -11.5t-74 -33.5q-63 -42 -99 -120t-50.5 -194t-14.5 -264z" />
<glyph unicode="1" d="M193 1190q132 54 237.5 105t194.5 106l34 -10v-1397l-33 3q-15 0 -22 2l-26 1h-25l-22 -2l-35 -4v1237l-15 6l-227 -123q-19 48 -61 76z" />
<glyph unicode="2" d="M90 0v31q57 54 168 168l123 127l157 166q59 65 109 141t79.5 169.5t29.5 205.5q0 86 -24 151t-76.5 102t-139.5 37q-96 0 -162.5 -60.5t-87.5 -156.5l-14 -6l-72 101q59 93 150.5 143.5t204.5 50.5q122 0 213.5 -38t143.5 -118q26 -40 39 -89t13 -113q0 -118 -57 -223.5 t-154 -206.5l-244 -260l-124 -132l-35 -38l10 -23l182 4q55 0 138.5 4.5t103.5 4.5q52 0 103 4q69 7 102 10l-4 -48l-2 -30l2 -34l4 -44h-879z" />
<glyph unicode="3" d="M123 43q11 31 15 62l9 63l13 8q56 -62 127 -98.5t149 -36.5q153 0 241.5 102t88.5 258q0 131 -74.5 204t-208.5 73h-30q-15 -3 -22 -4l-46 -4l3 17q0 7 2 11l1 15l-2 19l-4 22l78 -4q81 0 136.5 40.5t82.5 109.5t27 149q0 74 -25.5 132t-74.5 92t-117 34q-74 0 -138 -46 t-94 -118l-10 -6l-51 110q32 40 113 81.5t188 41.5q100 0 186.5 -31t144.5 -98t58 -164q0 -120 -72 -213t-205 -143q45 0 87 -12t86 -33q74 -36 120.5 -105t46.5 -165q0 -132 -69.5 -229t-187 -148.5t-263.5 -51.5q-171 0 -309 66z" />
<glyph unicode="4" d="M43 381v27l163 237q41 60 85 123q38 55 90 126l165 232l167 234l36 -4l29 -2l26 2l38 4v-862l188 8l-4 -66l4 -67l-188 8v-387l-34 3q-15 0 -22 2l-26 1l-28 -1l-23 -2l-31 -3v387h-635zM213 508l8 -10h461v657l-10 8q-82 -109 -156 -213q-20 -29 -73 -105 q-47 -68 -77 -113z" />
<glyph unicode="5" d="M121 57l31 136l14 2q45 -72 126 -111t171 -39q144 0 224.5 110.5t80.5 268.5q0 319 -293 319q-115 0 -203 -67l-18 14v674l12 6h658l8 -16q-12 -54 -12 -150q-144 33 -277 33h-303v-457q100 49 219 49q111 0 201.5 -48.5t144 -138.5t53.5 -202q0 -120 -61.5 -226 t-178 -171.5t-269.5 -65.5q-196 0 -328 80z" />
<glyph unicode="6" d="M119 559q0 182 44 332q23 78 52.5 140.5t72.5 118.5q80 107 192.5 163.5t242.5 56.5q59 0 92 -6l23 -72q-42 15 -97 15q-152 0 -250 -107t-143 -263q-21 -79 -33 -155.5t-12 -150.5q57 90 140.5 136t191.5 46q95 0 169.5 -27.5t123 -76t75.5 -121t27 -156.5 q0 -131 -56 -234.5t-158 -162t-232 -58.5q-161 0 -266.5 77.5t-152 211.5t-46.5 293zM303 375q0 -85 33 -161t100 -124.5t150 -48.5q130 0 196 111.5t66 265.5q0 144 -71 230q-34 42 -81 64.5t-104 22.5q-67 0 -121 -25.5t-93 -72.5q-75 -90 -75 -262z" />
<glyph unicode="7" d="M162 -6l2 22l185 305l232 383l148 251l143 253l-8 9q-32 0 -138 -6t-181 -6q-68 0 -243 -14q-88 -7 -138 -7l3 39q0 18 2 25l1 30l-2 42l-4 50h874l2 -59l-162 -273l-216 -374l-195 -351l-166 -319l-29 3q-13 0 -19 2l-22 1l-24 -1l-20 -2z" />
<glyph unicode="8" d="M115 383q0 87 39 164t107 131t151 76v14q-69 17 -147.5 82t-78.5 197q0 101 55.5 174.5t146 111t190.5 37.5q86 0 149 -15.5t123 -60.5q113 -84 113 -227q0 -66 -30.5 -126t-82.5 -103t-117 -62v-14q53 -10 115 -40.5t120 -104t58 -193.5q0 -135 -58 -235t-164.5 -156 t-238.5 -56q-128 0 -231 45t-161 137t-58 224zM295 385q0 -148 70.5 -246t212.5 -98q70 0 121.5 30.5t83 81t47.5 114t16 130.5q0 64 -15 124t-48 104.5t-84.5 71t-123.5 26.5q-86 0 -150.5 -48.5t-97 -127.5t-32.5 -162zM356 1024q0 -99 70 -176q51 -60 152 -60 q110 0 172 95q21 30 32 74t11 104q0 25 -3 47.5t-11 46.5q-13 44 -40.5 77t-70 54t-93.5 21q-107 0 -169 -93q-30 -38 -40 -86q-4 -20 -7 -48t-3 -56z" />
<glyph unicode="9" d="M92 934q0 133 57.5 231t161.5 151.5t240 53.5q116 0 202 -48t140 -130t78 -185.5t24 -220.5q0 -172 -45.5 -322t-127.5 -258.5t-191.5 -168.5t-229.5 -60q-55 0 -102.5 9.5t-58.5 17.5q-5 47 -43 105l22 8q20 -17 42 -30t51 -26q27 -10 52 -15t54 -5q96 0 184.5 79 t140.5 218q36 93 51 186.5t15 200.5q-51 -86 -140 -137q-42 -23 -90.5 -36t-99.5 -13q-109 0 -197 48t-139 138t-51 209zM272 946q0 -131 63.5 -226t192.5 -95q63 0 114.5 27t89.5 76q34 44 56 105q9 29 14 58.5t5 60.5q0 99 -30 180.5t-90 128t-142 46.5q-94 0 -155.5 -52 t-89.5 -134.5t-28 -174.5z" />
<glyph unicode=":" horiz-adv-x="569" d="M162 100q0 52 38 87.5t87 35.5q33 0 59 -16.5t44 -45t18 -61.5q0 -47 -36.5 -85t-84.5 -38q-49 0 -87 36.5t-38 86.5zM162 840q0 48 38.5 85.5t86.5 37.5q50 0 85.5 -37t35.5 -86q0 -51 -36 -87t-85 -36q-50 0 -87.5 36t-37.5 87z" />
<glyph unicode=";" horiz-adv-x="569" d="M94 -330l144 455q16 54 35 84q18 33 59 33q33 0 58.5 -20.5t25.5 -55.5q0 -17 -7 -37l-15 -35l-23 -37l-242 -401zM199 840q0 48 38.5 85.5t86.5 37.5q50 0 85 -37.5t35 -85.5q0 -52 -35 -87.5t-85 -35.5t-87.5 36t-37.5 87z" />
<glyph unicode="&#x3c;" horiz-adv-x="1241" d="M100 465v110l1043 480v-127l-877 -408l877 -407v-127z" />
<glyph unicode="=" horiz-adv-x="1241" d="M104 256v131h1033v-131h-1033zM104 653v131h1033v-131h-1033z" />
<glyph unicode="&#x3e;" horiz-adv-x="1241" d="M98 -14v127l877 407l-877 408v127l1043 -480v-110z" />
<glyph unicode="?" horiz-adv-x="797" d="M160 1362q110 63 200 63q142 0 225 -71.5t83 -194.5q0 -85 -29 -146.5t-94 -133.5l-129 -142q-53 -59 -79 -100.5t-26 -91.5q0 -27 7.5 -47t24.5 -38q32 -34 83 -34q27 0 59 12l13 -8l-25 -57q-13 -8 -55 -8q-96 0 -166 64.5t-70 174.5q0 70 30 125t89 117l123 131 q52 52 81.5 100t29.5 105q0 51 -26 89.5t-71 59.5t-94 21q-47 0 -94 -25.5t-78 -66.5zM252 100q0 52 38 87.5t87 35.5q33 0 59 -16.5t44 -45t18 -61.5q0 -47 -36.5 -85t-84.5 -38q-49 0 -87 36.5t-38 86.5z" />
<glyph unicode="@" horiz-adv-x="1638" d="M102 682q0 203 98.5 374.5t271.5 270t384 98.5q78 0 144.5 -11t131.5 -36q125 -47 215 -128t139.5 -187t49.5 -219q0 -150 -71 -278.5t-179 -206.5q-54 -38 -104 -57t-99 -19q-83 0 -127 45q-39 44 -47 102q-71 -68 -124.5 -102.5t-131.5 -34.5q-109 0 -191.5 84 t-82.5 213q0 110 62.5 217t164.5 174.5t215 67.5q138 0 193 -115l26 94h181l-148 -536l-7 -26l-3 -24q0 -24 15 -47q15 -20 42 -20q61 0 133 55t123 162.5t51 247.5q0 95 -58.5 208.5t-186 194t-312.5 80.5t-334 -79.5t-235 -223.5t-86 -324q0 -182 87 -323t242 -221 t339 -80q107 0 201.5 34.5t175 98t141.5 153.5h125q-22 -42 -51 -82.5t-65 -76.5q-68 -71 -154 -123t-186 -79q-51 -14 -98.5 -21t-99.5 -7q-155 0 -295.5 51t-247 147.5t-167 228t-60.5 286.5zM561 528q0 -66 30 -109.5t95 -43.5q64 0 128.5 82.5t107.5 197.5t43 187 q0 51 -26.5 88t-82.5 37q-81 0 -148.5 -74t-107 -182t-39.5 -183z" />
<glyph unicode="A" horiz-adv-x="1366" d="M33 -6l639 1431h47l614 -1431l-43 3h-12q-5 0 -17 2l-34 1l-51 -2l-58 -4q-53 154 -105 288t-110 265h-520l-80 -202l-66 -176q-34 -95 -57 -175l-31 3q-15 0 -21 2l-24 1l-25 -1l-20 -2zM422 633h450l-227 524z" />
<glyph unicode="B" horiz-adv-x="1251" d="M0 0h195v1395h401q152 0 252.5 -27t152.5 -89.5t52 -166.5q0 -69 -24 -127.5t-68 -105.5t-103 -79q-53 -28 -129 -50q29 0 61 -5.5t69 -16.5q68 -18 121 -56q53 -35 88.5 -96.5t35.5 -147.5q0 -217 -184 -346q-53 -35 -126 -55q-66 -16 -141 -23l-166 -4h-487zM375 76 h194q100 0 178 40t122 113.5t44 163.5q0 168 -111 238.5t-313 70.5h-114v-626zM375 778h84q87 0 144.5 8.5t113.5 34.5q74 36 115.5 100t41.5 148q0 93 -40.5 149t-117.5 78.5t-190 22.5h-151v-541z" />
<glyph unicode="C" horiz-adv-x="1366" d="M78 702q0 225 101 388.5t278 249t393 85.5q75 0 151 -10t149.5 -32t139.5 -52q-25 -64 -43 -157l-14 -3q-24 31 -75.5 69.5t-135.5 73t-180 34.5q-180 0 -306.5 -87.5t-191.5 -240t-65 -326.5q0 -192 69 -338.5t194.5 -226.5t284.5 -80q102 0 191.5 30.5t148 68 t95.5 67.5l-11 -129q-59 -40 -136 -67q-70 -24 -151 -37t-165 -13q-168 0 -301.5 50.5t-226.5 146.5t-143 234t-50 302z" />
<glyph unicode="D" horiz-adv-x="1593" d="M205 0v1395h465h141q146 0 252 -24t199 -99q107 -88 163 -224t56 -288q0 -137 -31 -249t-89.5 -198t-137.5 -157q-60 -54 -136 -87q-33 -14 -72 -26.5t-78.5 -20t-78 -13t-70.5 -5.5l-184 -4h-399zM385 92q11 0 30.5 -1t44.5 -4l103 -5l82 -2q218 0 340 61 q156 78 225.5 231.5t69.5 356.5q0 168 -34 277.5t-110 179.5t-198.5 102.5t-294.5 32.5q-21 0 -73.5 -2t-63.5 -2l-121 -4v-1221z" />
<glyph unicode="E" horiz-adv-x="1024" d="M182 0v1395h727l-4 -37l-2 -25l2 -25l4 -36q-55 11 -83 15q-49 7 -101 7l-205 4h-158v-514h318l55 2l61 5l66 4l-4 -31l-2 -23l2 -21l4 -36l-66 4l-61 4l-55 2h-318v-598q20 0 165.5 4t205.5 4q42 0 82 4.5t107 14.5l-3 -22l-3 -21l-1 -19q0 -19 2 -30l5 -31h-740z" />
<glyph unicode="F" horiz-adv-x="1024" d="M182 -6v1401h727l-4 -37l-2 -25l2 -25l4 -36q-55 11 -83 15q-49 7 -101 7l-205 4h-158v-514h318l55 2l61 5l66 4l-4 -31l-2 -23l2 -21l4 -36l-66 4l-61 4l-55 2h-318v-700l-37 3q-17 0 -24 2l-29 1l-41 -2z" />
<glyph unicode="G" horiz-adv-x="1593" d="M131 694q0 176 59 313t167 230t256 141q72 23 151.5 35t165.5 12q139 0 247 -21.5t174 -48.5q62 -24 101 -48q-9 -28 -27 -90l-20 -68h-23q-43 51 -95 87t-107.5 59.5t-125 38t-132.5 14.5q-130 0 -239.5 -42t-187.5 -124t-120.5 -203t-42.5 -274q0 -203 69 -350.5 t208 -228.5q69 -39 152.5 -59t182.5 -20q183 0 320 70v526l52 -4l38 -2l35 2l55 4v-580q-135 -45 -274 -69.5t-283 -24.5q-252 0 -421.5 92.5t-252 257.5t-82.5 375z" />
<glyph unicode="H" horiz-adv-x="1593" d="M184 -6v1401l52 -4l38 -2l36 2l55 4v-588l432 -10q92 4 216.5 7t213.5 3v588l52 -4l38 -2l36 2l54 4v-1401l-37 3q-17 0 -24 2l-29 1l-31 -1l-26 -2l-33 -3v704l-144 4l-167 5l-119 2l-120 -2q-30 0 -90 -2.5t-78 -2.5l-144 -4v-704l-37 3q-18 0 -25 2l-29 1l-41 -2z" />
<glyph unicode="I" horiz-adv-x="569" d="M195 -6v1401l52 -4l38 -2l35 2l55 4v-1401l-37 3q-18 0 -25 2l-28 1l-31 -1l-26 -2z" />
<glyph unicode="J" horiz-adv-x="569" d="M-29 -227q52 0 92.5 14.5t69.5 42.5q55 52 73.5 133.5t18.5 188.5v1243l52 -4l38 -2l36 2l55 4v-1217q0 -137 -49 -237.5t-146 -160.5q-49 -30 -104 -46.5t-119 -16.5z" />
<glyph unicode="K" horiz-adv-x="1251" d="M186 -6v1401l52 -4l38 -2l36 2l55 4v-633q6 -4 10 -4q16 0 41 16q18 14 43.5 37.5t64.5 62.5l504 521l47 -4l35 -2l32 2l48 4l-465 -447l-174 -176l172 -195l200 -224l126 -144l166 -205v-10l-47 3h-13q-6 0 -18 2l-35 1l-53 -2l-62 -4q-79 114 -141 186l-447 522 q-13 11 -28 11q-1 1 -3 -1l-3 -3v-715l-37 3q-18 0 -25 2l-29 1l-41 -2z" />
<glyph unicode="L" horiz-adv-x="1024" d="M182 0v1395l52 -4l38 -2l37 2l53 4v-1299q20 0 165.5 4t205.5 4q36 0 89 7l106 12l-4 -37l-2 -25l2 -25l4 -36h-746z" />
<glyph unicode="M" horiz-adv-x="1821" d="M90 -6l71 471l83 583q31 232 43 347h53l149 -293q46 -91 124 -237q89 -168 161.5 -294.5t90.5 -157.5q9 -16 55 -91l165 301l158 289l102 188l164 295h43l40 -362l43 -379q20 -177 24.5 -213.5t13.5 -102.5l45 -344l-40 3q-18 0 -26 2l-30 1l-33 -1l-27 -2l-36 -3 q0 82 -14 207q-8 64 -15 129l-27 277l-24 239q-14 141 -25 205q-74 -132 -122 -218q-60 -108 -103 -189q-39 -73 -60 -113q-7 -14 -58 -113q-22 -42 -57 -113q-78 -159 -136 -289h-23l-112 232q-64 135 -136 270l-141 272l-137 261q-9 -80 -16.5 -150t-18.5 -153l-34 -305 l-24 -274q0 -32 -3.5 -91t-3.5 -84l-30 3q-14 0 -20 2l-22 1l-26 -1l-20 -2z" />
<glyph unicode="N" horiz-adv-x="1593" d="M205 -6v1401h80l972 -1055h21v1055l32 -4l25 -2l24 2l34 4v-1401h-62q-39 52 -106 125l-885 979h-21v-1104l-31 4l-26 2l-20 -1l-16 -2z" />
<glyph unicode="O" horiz-adv-x="1706" d="M86 694q0 164 57 300t163 234q102 94 239.5 145.5t298.5 51.5q148 0 288 -41.5t249.5 -127.5t174 -219.5t64.5 -311.5q0 -222 -99 -394t-278 -267t-403 -95q-167 0 -307.5 51t-240 147.5t-153.5 231.5q-27 68 -40 139.5t-13 155.5zM287 670q0 -149 41.5 -266.5 t120 -200.5t181.5 -124.5t216 -41.5q145 0 254.5 62.5t179 164t104.5 223t35 222.5t-10 171t-39.5 143.5t-79.5 136.5t-116.5 106.5t-148.5 67.5t-161 24q-133 0 -241 -49t-183 -139.5t-114 -219t-39 -280.5z" />
<glyph unicode="P" d="M162 -6v1401h366q199 0 313.5 -32t165 -105.5t50.5 -198.5q0 -92 -27 -160.5t-81.5 -117.5t-135.5 -84q-73 -29 -195 -56q-21 -4 -52 -7t-66 -3h-19q-21 2 -34 2h-19h-14q-9 2 -13 2l-30 1l-29 1v-643l-37 3q-17 0 -24 2l-29 1l-31 -1l-26 -2zM342 717l94 -4q10 0 46 2 t63 2q153 15 238 104t85 228q0 70 -24.5 127t-75.5 93t-131 44q-8 0 -60 2t-98 2h-82q-33 0 -55 -2v-598z" />
<glyph unicode="Q" horiz-adv-x="1706" d="M86 696q0 208 100 374t274 260.5t384 94.5q215 0 393.5 -81t280.5 -239t102 -376q0 -197 -72.5 -341.5t-194.5 -238.5q-118 -90 -272 -143q28 -19 51 -36.5t48 -37.5l104 -80l120 -91l136 -101l-96 -44q-33 -17 -64 -40q-15 22 -182.5 170.5t-279.5 228.5l-30 -4l-20 -2 q-228 0 -404 84.5t-278 248.5q-50 84 -75 180.5t-25 213.5zM287 670q0 -158 45 -278.5t124 -199.5t179 -117t211 -38q164 0 279.5 74.5t177.5 184.5t89 223.5t27 189.5q0 101 -10 171t-38.5 142t-80.5 135q-74 95 -187 148t-239 53q-147 0 -256 -54.5t-181.5 -152 t-106 -220.5t-33.5 -261z" />
<glyph unicode="R" horiz-adv-x="1251" d="M184 -6v1401h434q234 0 344.5 -77.5t110.5 -234.5q0 -84 -33.5 -151t-93.5 -115t-134 -77.5t-159 -45.5l422 -534l99 -115l38 -51l-48 3h-13q-7 0 -19 2l-38 1h-34l-33 -2l-50 -4q-89 126 -129 178l-242 313l-164 193h-77v-684l-37 3q-18 0 -25 2l-29 1l-41 -2zM365 756 l43 -1l53 -1q100 0 168 12q118 24 190 101.5t72 191.5q0 220 -225 258q-33 6 -127 6q-16 0 -45 -1t-42 -1q-12 0 -41 -1t-46 -1v-563z" />
<glyph unicode="S" horiz-adv-x="1024" d="M92 88q24 67 39 182h21q66 -107 143 -160t188 -53q81 0 146 40.5t102 110.5t37 148q0 125 -77.5 184t-237 122t-243 138.5t-83.5 231.5q0 189 129 291t326 102q81 0 160 -24.5t132 -73.5q-13 -31 -55 -168h-20q-30 83 -97 130.5t-157 47.5q-70 0 -129 -30t-94 -85.5 t-35 -123.5q0 -125 77 -183t239.5 -122.5t245.5 -137.5t83 -219q0 -108 -38 -194t-109 -148t-162 -94q-45 -15 -94 -23t-103 -8q-45 0 -86.5 7t-97.5 25q-100 33 -150 87z" />
<glyph unicode="T" d="M41 1272l4 33l2 28l-1 20l-2 16l-3 26h1057l-4 -37l-2 -25l2 -25l4 -36l-198 17q-39 0 -84 2q-114 5 -146 5v-1306l-37 3q-18 0 -25 2l-28 1l-42 -2l-49 -4v1306q-212 0 -448 -24z" />
<glyph unicode="U" horiz-adv-x="1593" d="M193 575v820l52 -4l38 -2l35 2l55 4v-785q0 -138 22.5 -239.5t74 -170.5t139.5 -103q43 -16 98 -25t118 -9q231 0 337 150t106 418v764l32 -4l25 -2l22 2l35 4v-815q0 -199 -72.5 -335.5t-208.5 -206t-317 -69.5q-103 0 -184 16t-142.5 47t-117.5 81q-87 78 -117 195 q-15 63 -22.5 127t-7.5 140z" />
<glyph unicode="V" horiz-adv-x="1366" d="M49 1395l56 -4l42 -2l42 2l59 4l76 -199l137 -358l252 -621h18l57 119q17 35 33 71q13 30 25 58l215 555l123 342l14 33l43 -4l33 -2l29 2l45 4q-26 -50 -111 -243l-196 -453q-6 -15 -69 -164q-52 -125 -62 -148q-22 -53 -54 -132q-70 -174 -100 -261l-23 4l-18 2l-20 -2 l-23 -4l-165 355l-193 444l-181 419q-57 135 -84 183z" />
<glyph unicode="W" horiz-adv-x="2048" d="M25 1395l55 -4l41 -2l36 2l58 4l61 -217l121 -416l172 -541h19l135 390l160 467q84 250 102 317l33 -4l26 -2l24 2l34 4q10 -39 26 -89q4 -12 27 -80l81 -243l125 -372l130 -390h18q19 49 41 111t41 123l240 772l49 168l40 -4l32 -2l28 2l43 4q-61 -141 -102 -262 l-391 -1139l-28 3q-13 0 -18 2l-22 1l-30 -2l-37 -4l-48 151l-76 235q-20 62 -55 172t-88 268l-104 323h-16l-398 -1149l-28 3q-13 0 -18 2l-21 1l-24 -1l-19 -2l-27 -3l-42 140q-24 84 -40 130z" />
<glyph unicode="X" horiz-adv-x="1251" d="M74 -6l63 93l90 130l95 139l227 342l-79 129l-91 151l-66 107l-202 310l64 -4l46 -2l45 2l66 4l48 -81l56 -95l217 -373l102 158l88 133l69 109q42 70 85 149l43 -4l33 -2l31 2l45 4l-35 -41l-313 -436l-101 -152l476 -772l-46 3h-13q-6 0 -18 2l-36 1l-52 -2l-61 -4 q-24 46 -47 92q-36 68 -72 134q-56 103 -113 197q-33 56 -44 74q-38 62 -78 125q-70 -105 -126 -196l-117 -197l-128 -229l-34 4q-16 0 -20 2h-21l-27 -1l-21 -2z" />
<glyph unicode="Y" horiz-adv-x="1251" d="M41 1395l66 -4l49 -2l44 2l68 4l123 -229l151 -265q86 -151 115 -192q22 25 74 112l119 208l113 207l86 159l45 -4l34 -2l32 2l48 4q-77 -100 -145 -205l-225 -363q-63 -95 -115 -204v-629l-37 3q-17 0 -24 2l-29 1l-31 -1l-26 -2l-33 -3v590z" />
<glyph unicode="Z" horiz-adv-x="1251" d="M35 0v45l596 832q223 322 291 426v4l-234 -2q-28 0 -80 -2t-77 -2q-40 0 -78.5 -3t-61.5 -5l-141 -11l-131 -10l4 33l2 28l-1 20l-2 16l-3 26h1077v-39l-211 -279l-206 -283l-247 -355q-6 -9 -82 -122q-13 -20 -77 -116.5t-70 -106.5v-4h311q54 0 146 8q158 14 191 16 q131 9 237 9l-4 -37l-2 -25l2 -25l4 -36h-1153z" />
<glyph unicode="[" horiz-adv-x="682" d="M276 -238v1770h322v-59h-199v-1651h199v-60h-322z" />
<glyph unicode="\" horiz-adv-x="1024" d="M68 1532l63 -4l64 4l761 -1532l-65 4h-31q-13 0 -31 -4z" />
<glyph unicode="]" horiz-adv-x="682" d="M84 -178h199v1651h-199v59h322v-1770h-322v60z" />
<glyph unicode="^" horiz-adv-x="1241" d="M104 563l449 832h135l447 -832h-144l-370 668l-373 -668h-144z" />
<glyph unicode="_" horiz-adv-x="1024" d="M0 -250h1024v-78h-1024v78z" />
<glyph unicode="`" horiz-adv-x="682" d="M41 1364l4 27q17 43 84 43q18 -6 27 -15q12 -8 77 -73l259 -256h-72l-322 200l-20 15l-19 15l-12 15q-6 15 -6 29z" />
<glyph unicode="a" horiz-adv-x="1024" d="M94 227q0 108 50.5 167.5t123 82.5t205.5 45q97 15 137.5 27.5t60 37t19.5 72.5q0 114 -62.5 177t-176.5 63q-66 0 -119 -24t-83.5 -56t-41.5 -61h-23v114q166 113 330 113q162 0 247 -86.5t85 -257.5v-475v-32q0 -16 2.5 -30.5t14.5 -27.5t38 -13q21 0 60 9v-45 q-35 -15 -65 -21t-62 -6q-29 0 -54.5 8t-45.5 22q-37 28 -46 95l-18 -19q-129 -129 -303 -129q-111 0 -192 69.5t-81 180.5zM262 256q0 -96 52.5 -144.5t148.5 -48.5q36 0 85 24t79 54l22 21l22 24q9 12 11 19v299l-72 -15l-125 -25q-57 -12 -106.5 -33.5t-83 -64.5 t-33.5 -110z" />
<glyph unicode="b" d="M0 0h133v1532l47 -4l35 -2l33 2l49 4v-758q65 98 154 155q44 28 93 42t107 14q135 0 229 -68t139.5 -177.5t45.5 -229.5q0 -106 -30.5 -200t-90 -169t-146.5 -119.5t-196 -44.5q-193 0 -291 146q-24 -18 -59 -50l-80 -73h-172zM293 418q0 -108 34 -193.5t99.5 -133.5 t153.5 -48q81 0 141.5 42.5t95.5 112t52 147.5q8 41 12 77t4 80q0 117 -30.5 204t-94.5 140t-160 53q-161 0 -234 -137.5t-73 -343.5z" />
<glyph unicode="c" horiz-adv-x="1024" d="M84 485q0 154 67 267t187.5 173t275.5 60q189 0 324 -84l-47 -135h-17q-40 56 -55 68q-30 36 -90 58.5t-113 22.5q-165 0 -260 -123q-46 -62 -69 -135t-23 -161q0 -66 11 -122t36 -110q46 -101 131 -159t195 -58q80 0 144 32.5t139 100.5l12 -6l-10 -94 q-142 -103 -314 -103q-165 0 -283 65.5t-179.5 181.5t-61.5 261z" />
<glyph unicode="d" d="M72 473q0 141 54 258.5t154.5 185.5t231.5 68q205 0 322 -199v746l46 -4l35 -2l34 2l48 4v-1538l-34 3q-15 0 -22 2l-26 1l-28 -1l-22 -2l-31 -3v196q-125 -213 -353 -213q-88 0 -161 30t-129.5 93.5t-87.5 156t-31 216.5zM252 444q0 -156 67 -274.5t213 -118.5 q110 0 178 71t96 177.5t28 210.5q0 97 -27.5 186t-89.5 147t-160 58q-305 0 -305 -457z" />
<glyph unicode="e" horiz-adv-x="1024" d="M70 481q0 144 54 258t160.5 180t254.5 66q85 0 159 -28t132 -83.5t92 -143.5t34 -202l-1 -24l-1 -21q-69 0 -207 3t-208 3h-289l-2 -43q0 -80 23 -148.5t68.5 -121t114.5 -83t150 -30.5q157 0 303 142l-2 -107q-79 -56 -173 -89q-46 -16 -89 -24t-90 -8q-140 0 -250.5 60 t-171.5 175.5t-61 268.5zM250 565h545q0 77 -15.5 141.5t-45.5 115.5q-58 100 -195 100q-89 0 -152 -50t-98 -133q-19 -47 -29 -88.5t-10 -85.5z" />
<glyph unicode="f" horiz-adv-x="569" d="M39 895l4 39q0 28 -4 39h141l4 16q18 132 63 253.5t137 205.5t232 84q-10 -58 -10 -164l-10 -8l-41 20q-28 11 -72 11q-172 0 -172 -213q0 -42 7 -93.5t22 -111.5h209l-4 -39v-14q0 -4 4 -25h-205v-901l-34 3q-15 0 -22 2l-26 1l-28 -1l-23 -2l-31 -3v901h-141z" />
<glyph unicode="g" horiz-adv-x="1024" d="M74 -240q0 107 56.5 168t156.5 80v17q-55 9 -90 45t-35 120q0 68 37 108.5t104 68.5q-62 29 -107 68t-68.5 94t-23.5 130q0 153 97 239.5t317 86.5l285 -10l57 -2q45 0 90 6v-78l-225 19q65 -50 103 -118.5t38 -152.5q0 -158 -122.5 -237.5t-313.5 -79.5 q-73 0 -110 -19.5t-37 -79.5t47.5 -79t148.5 -19h131q181 0 268 -70t87 -202q0 -44 -9 -84t-29 -79q-35 -73 -105 -128q-64 -51 -162.5 -82t-215.5 -31q-142 0 -256 75.5t-114 225.5zM199 -231q0 -119 81.5 -183.5t213.5 -64.5q129 0 226 64t97 198q0 100 -39.5 149 t-106 63.5t-155.5 14.5q-317 0 -317 -241zM260 662q0 -40 6 -74.5t20 -67.5q26 -62 77.5 -99.5t119.5 -37.5q72 0 123 36t78 99t27 133q0 130 -52 204.5t-167 74.5q-109 0 -170.5 -74.5t-61.5 -193.5z" />
<glyph unicode="h" d="M158 -6v1538l47 -4l35 -2l33 2l49 4v-746q113 199 329 199q174 0 252 -99.5t78 -299.5v-592l-34 3q-15 0 -22 2l-26 1l-28 -1l-23 -2l-31 -3v545q0 90 -12 153.5t-38 105.5q-50 81 -177 81q-268 0 -268 -328v-557l-34 3q-15 0 -22 2l-26 1h-25l-22 -2z" />
<glyph unicode="i" horiz-adv-x="569" d="M180 1323q0 43 30.5 73.5t74.5 30.5q41 0 72.5 -30.5t31.5 -73.5q0 -42 -31 -73t-73 -31t-73.5 31t-31.5 73zM203 -6v979l47 -4l35 -2l33 2l49 4v-979l-34 3q-15 0 -22 2l-26 1h-25l-22 -2z" />
<glyph unicode="j" horiz-adv-x="569" d="M0 -475l18 -4q56 0 90.5 35t60 97t36.5 149q4 37 7 89t3 101v981l47 -4l35 -2l33 2l49 4v-989q0 -149 -24.5 -252t-104.5 -181q-49 -41 -112 -66.5t-124 -25.5zM193 1323q0 43 30.5 73.5t73.5 30.5q41 0 72.5 -30.5t31.5 -73.5q0 -42 -31 -73t-73 -31t-73 31t-31 73z" />
<glyph unicode="k" horiz-adv-x="1024" d="M162 -6v1538l47 -4l35 -2l33 2l49 4v-918q0 -44 2 -53.5t8 -13.5q57 0 178 121l127 129l160 176l47 -4l35 -2l31 2l49 4v-15l-57 -49l-111 -93q-86 -73 -169 -148l-114 -105l89 -104l132 -154l138 -160l122 -141v-10l-42 3q-18 0 -26 2l-32 1h-31l-28 -2l-43 -4 q-48 64 -151 183l-241 278q-29 32 -47 32q-26 0 -26 -75v-418l-34 3q-15 0 -22 2l-26 1h-25l-22 -2z" />
<glyph unicode="l" horiz-adv-x="569" d="M203 -6v1538l47 -4l35 -2l33 2l49 4v-1538l-34 3q-15 0 -22 2l-26 1h-25l-22 -2z" />
<glyph unicode="m" horiz-adv-x="1706" d="M145 -6v979l46 -4l36 -2l34 2l48 4v-176q33 58 76 100t101 65t126 23q103 0 185 -54t114 -149q120 203 322 203q180 0 255 -99.5t75 -299.5v-592l-34 3q-15 0 -22 2l-26 1h-25l-22 -2l-35 -4v545q0 52 -4 96t-13 81q-15 71 -65.5 117t-145.5 46q-138 0 -186.5 -94 t-48.5 -238v-553l-34 3q-15 0 -22 2l-26 1l-28 -1l-23 -2l-31 -3v600q0 145 -52 215t-165 70q-99 0 -153 -39t-74 -102q-9 -32 -14 -68.5t-5 -79.5v-596l-34 3q-15 0 -22 2l-26 1l-38 -2z" />
<glyph unicode="n" d="M158 -6v979l47 -4l35 -2l33 2l49 4v-187q113 199 329 199q177 0 253.5 -97t76.5 -302v-592l-34 3q-15 0 -22 2l-26 1l-28 -1l-23 -2l-31 -3v545q0 104 -18 178.5t-68.5 118t-140.5 43.5q-150 0 -209 -103t-59 -307v-475l-34 3q-15 0 -22 2l-26 1h-25l-22 -2z" />
<glyph unicode="o" d="M72 492q0 110 38.5 199t110.5 156t165.5 102.5t205.5 35.5q140 0 247.5 -60.5t167.5 -174.5t60 -265q0 -97 -33 -189t-98.5 -164.5t-163.5 -113.5t-217 -41q-132 0 -243.5 61.5t-175.5 179.5t-64 274zM252 461q0 -113 32.5 -205.5t104.5 -153.5t182 -61q108 0 179.5 74 t104 181t32.5 200q0 76 -15 150.5t-49.5 135.5t-92.5 100.5t-140 39.5q-122 0 -197.5 -66.5t-108 -172.5t-32.5 -222z" />
<glyph unicode="p" d="M135 -530v1503l47 -4l35 -2l33 2l49 4v-207h4q49 94 117.5 156.5t228.5 62.5q48 0 90.5 -9t81.5 -28q76 -36 130 -102t82 -150.5t28 -179.5q0 -250 -122 -394.5t-321 -144.5q-211 0 -315 197h-4v-704l-34 3q-15 0 -22 2l-26 1l-28 -1l-23 -2zM299 457q0 -174 75.5 -284 t225.5 -110q99 0 161 59t91 159.5t29 226.5q0 108 -26 199.5t-90 149.5t-167 58q-110 0 -176 -69t-94.5 -175.5t-28.5 -213.5z" />
<glyph unicode="q" d="M74 483q0 141 48 256.5t140 180.5t221 65q81 0 140 -22t100.5 -57.5t68.5 -75.5q27 -37 37 -68h5v211l46 -4l35 -2l34 2l48 4v-1503l-34 3q-15 0 -22 2l-26 1l-28 -1l-22 -2l-31 -3v700h-5q-93 -193 -315 -193q-104 0 -186 39t-140 111t-86 162t-28 194zM254 512 q0 -189 66.5 -319t238.5 -130q87 0 147 54.5t94 147.5q16 47 25 94t9 100q0 63 -9 117t-27 110q-33 103 -99.5 166t-161.5 63q-283 0 -283 -403z" />
<glyph unicode="r" horiz-adv-x="682" d="M162 -6v979l47 -4l35 -2l33 2l49 4v-205l10 25q120 192 258 192q40 0 63 -10l-28 -172q-12 2 -44.5 17.5t-52.5 15.5q-37 0 -72 -12.5t-59 -39.5q-47 -55 -61 -111.5t-14 -148.5v-530l-34 3q-15 0 -22 2l-26 1h-25l-22 -2z" />
<glyph unicode="s" horiz-adv-x="797" d="M86 43q36 111 43 150h16q39 -65 104 -108.5t132 -43.5q49 0 95.5 24t76 67t29.5 95q0 91 -55 125t-179.5 71t-187 88.5t-62.5 170.5q0 141 94.5 222t239.5 81q72 0 137 -16.5t95 -36.5q-27 -59 -50 -146h-18q-12 33 -41 65q-27 33 -61.5 52t-71.5 19q-79 0 -132.5 -45 t-53.5 -125q0 -87 55.5 -122.5t178.5 -75t186 -91.5t63 -162q0 -103 -54.5 -177t-142.5 -110.5t-180 -36.5q-143 0 -256 66z" />
<glyph unicode="t" horiz-adv-x="569" d="M20 895q5 15 5 39q0 29 -5 39h127v203l164 63v-266h217l-4 -41q0 -18 4 -37h-217v-514v-74q0 -116 30 -187t122 -71q11 0 31.5 3t60.5 11v-49q-105 -37 -172 -37q-56 0 -98.5 14t-73.5 50.5t-47.5 102.5t-16.5 155v596h-127z" />
<glyph unicode="u" d="M141 371v602l46 -4l36 -2l33 2l49 4v-553q0 -110 24 -186t79 -116t145 -40q97 0 152 48t77.5 124.5t22.5 157.5v565l47 -4l35 -2l33 2l49 4v-979l-34 3q-15 0 -22 2l-26 1h-25l-22 -2l-35 -4v176q-33 -63 -80.5 -105t-110.5 -65t-135 -23q-171 0 -254.5 94t-83.5 300z " />
<glyph unicode="v" horiz-adv-x="1024" d="M41 973l52 -4l40 -2l35 2l55 4q31 -105 74 -223t102 -263q56 -138 129 -303q36 50 39 58l123 288l164 443l38 -4l28 -2l26 2l39 4l-146 -315q-81 -180 -156 -363q-70 -168 -116 -301l-25 3q-11 0 -17 2l-19 1l-22 -1l-18 -2l-24 -3q-18 54 -69 183q-59 153 -61 157 q-27 62 -39 92q-54 136 -124.5 301.5t-107.5 245.5z" />
<glyph unicode="w" horiz-adv-x="1593" d="M35 973l52 -4l38 -2l35 2l55 4q128 -441 260 -760q32 68 69.5 161t79.5 205q85 230 138 394l31 -4l22 -2l21 2l32 4q22 -84 46 -161q21 -69 38 -120q8 -25 33 -97q45 -134 78 -220l67 -164q120 284 197 478q73 185 105 284l36 -4l29 -2l26 2l38 4q-75 -150 -200 -437 t-212 -542l-25 3q-9 0 -14 2l-16 1l-19 -1l-16 -2l-21 -3q-13 50 -31.5 111.5t-39.5 125.5t-43.5 131.5t-45.5 131.5q-28 79 -46 127q-24 64 -46 116q-32 -65 -81.5 -187t-98 -260.5t-98.5 -295.5l-23 3q-9 0 -14 2l-18 1l-19 -1l-16 -2l-21 -3q-43 137 -94 278 q-55 159 -100 279q-57 154 -95 246z" />
<glyph unicode="x" horiz-adv-x="1024" d="M59 973l60 -4l45 -2l43 2l61 4q46 -79 129 -198t135 -183l115 147l172 234l40 -4l30 -2l29 2l43 4l-124 -136l-123 -141q-57 -67 -134 -164l383 -518v-20l-40 3q-19 0 -27 2l-30 1l-44 -2l-52 -4q-27 45 -59.5 95t-73.5 110q-75 111 -156 217l-161 -221q-35 -48 -72 -104 q-32 -47 -62 -97l-24 3q-11 0 -17 2l-20 1l-22 -1l-17 -2l-23 -3v20l221 275l148 188z" />
<glyph unicode="y" horiz-adv-x="1024" d="M53 973l57 -4l42 -2l38 2l58 4q49 -155 129.5 -356.5t175.5 -403.5q67 137 150 346q39 97 81 209q37 98 76 205l37 -4l31 -2l26 2l39 4l-175 -387l-184 -406q-49 -109 -84 -190q-44 -101 -78 -181q-29 -67 -72 -172q-26 -63 -68 -167l-29 3q-13 0 -19 2l-22 1l-24 -1 l-20 -2l-25 -3l274 532z" />
<glyph unicode="z" horiz-adv-x="1024" d="M45 0v18q27 33 66 82t90 115l196 258l154 208l147 202v6q-23 0 -65 -1t-60 -1q-16 0 -66 -4t-84 -4l-149 -11l-124 -10l6 51l-1 17l-2 14l-3 23h784v-19l-637 -862v-6l169 3q35 0 66 2q94 6 103 6l144 9l141 10l-3 -16l-3 -19l-1 -18q0 -12 2 -18l2 -20l3 -15h-875z" />
<glyph unicode="{" horiz-adv-x="682" d="M119 645q92 27 123.5 79.5t31.5 156.5v364q0 123 35 183t102 82t181 22q-94 -22 -132 -84t-38 -174v-363q0 -80 -12.5 -129.5t-49 -84t-104.5 -52.5q71 -18 106.5 -55t47.5 -91t12 -141v-340q0 -71 15.5 -124t53.5 -85.5t101 -46.5q-93 0 -153 14.5t-96 50.5 q-35 33 -53 93q-8 30 -12 65.5t-4 84.5v333q0 110 -30 162t-125 80z" />
<glyph unicode="|" horiz-adv-x="682" d="M0 0h274v1532h132v-1532h-406z" />
<glyph unicode="}" horiz-adv-x="682" d="M90 -238q93 20 131.5 82t38.5 172v342q0 64 6 108.5t23 77.5t52 61q31 23 85 38q-67 17 -104 51t-49.5 85.5t-12.5 131.5v363q0 111 -36.5 172t-133.5 86q111 0 178.5 -21.5t103.5 -84t36 -183.5v-364q0 -34 3 -62t10 -53q12 -43 45.5 -73t96.5 -48q-46 -12 -80 -33 q-30 -18 -48 -48q-14 -26 -22 -64q-5 -40 -5 -95v-333q0 -119 -29 -187t-97 -94.5t-192 -26.5z" />
<glyph unicode="~" horiz-adv-x="1241" d="M104 426q59 107 126.5 172.5t164.5 65.5q51 0 108 -20q63 -19 139 -56l126 -53q46 -17 82 -17q63 0 122 53.5t93 122.5l72 -82q-31 -57 -72 -107t-98.5 -83t-118.5 -33q-18 0 -36 3t-43 11q-45 14 -114 42l-84 34l-58 24l-60 21q-30 8 -60 8q-73 0 -116 -45.5 t-101 -142.5z" />
<glyph unicode="&#xa1;" horiz-adv-x="1327" d="M12 1395l127 -6l43 2l68 4q135 -223 254 -400q128 -191 274 -381h23l81 163l112 226l110 227q11 22 41 90q23 51 33 75q33 -6 69 -6l29 2l45 4l-100 -184l-238 -462l-258 -510l-119 -245q-42 6 -63 6q-48 0 -92 -6q67 105 143 240l100 182l-129 188l-182 265l-213 306 q-61 87 -101 142q-43 60 -57 78zM253 1587l53 84q157 -101 369 -101q215 0 375 101l49 -82q-93 -56 -201.5 -86.5t-222.5 -30.5q-222 0 -422 115z" />
<glyph unicode="&#xa2;" horiz-adv-x="1024" d="M53 973l57 -4l42 -2l38 2l58 4q49 -155 129.5 -356.5t175.5 -403.5q67 137 150 346q39 97 81 209q37 98 76 205q33 -6 68 -6q30 0 65 6l-175 -387l-184 -406q-49 -109 -84 -190q-44 -101 -78 -181q-29 -67 -72 -172q-26 -63 -68 -167l-29 3q-13 0 -19 2l-22 1l-24 -1 l-20 -2l-25 -3l274 532zM199 1159l41 70q132 -82 303 -82q174 0 305 82l41 -68q-162 -96 -346 -96q-90 0 -176 24.5t-168 69.5z" />
<glyph unicode="&#xa3;" horiz-adv-x="909" d="M82 78l144 455q14 49 35.5 82.5t58.5 33.5q33 0 58.5 -20.5t25.5 -54.5q0 -17 -7 -37l-15 -35l-23 -37l-242 -401zM431 78l143 455q14 49 35.5 82.5t58.5 33.5q33 0 58.5 -20.5t25.5 -54.5q0 -29 -11 -51l-34 -58l-242 -401z" />
<glyph unicode="&#xa4;" d="M59 1135l91 90l110 -113q134 111 315 111q82 0 160 -27.5t144 -81.5l108 109l88 -88l-108 -109q112 -135 112 -311q0 -177 -116 -314l108 -110l-88 -88l-109 108q-61 -51 -139 -78.5t-162 -27.5q-178 0 -309 106l-108 -108l-90 86l110 110q-115 148 -115 312 q0 186 109 311zM186 711q0 -105 51.5 -193t140.5 -138t195 -50q103 0 190.5 52t139 142t51.5 191q0 99 -51 188.5t-138.5 142t-189.5 52.5q-103 0 -194 -51t-143 -140q-26 -45 -39 -92.5t-13 -103.5z" />
<glyph unicode="&#xa5;" horiz-adv-x="985" d="M184 -4v1399h635v96h88l-2 -133v-25l2 -25l4 -36q-55 11 -83 15q-49 7 -101 7l-205 4h-157v-1302l-91 4q-8 0 -38 -2t-52 -2z" />
<glyph unicode="&#xa6;" horiz-adv-x="682" d="M0 0h274v573h132v-573h-406zM274 958v574h132v-574h-132z" />
<glyph unicode="&#xa7;" horiz-adv-x="1024" d="M125 664q0 66 36.5 130.5t100.5 114.5q-55 99 -55 176q0 103 46.5 178.5t128.5 118.5t185 43q165 0 275 -114q-33 -41 -62 -119h-18q-28 74 -86.5 120t-124.5 46q-96 0 -156 -45q-35 -26 -59 -70q-11 -20 -17 -41.5t-6 -44.5q0 -69 38.5 -116.5t109.5 -79.5l256 -113 q80 -35 130 -103.5t50 -156.5q0 -134 -117 -262q78 -84 78 -164q0 -89 -32.5 -163.5t-91 -129t-138 -84t-168.5 -29.5q-137 0 -289 84q25 100 25 174h18q51 -92 128 -138t182 -46q68 0 127.5 36.5t96 91.5t36.5 99q0 56 -24 96t-66 67t-95 48l-108 47q-59 25 -103 46t-76 40 q-62 36 -108.5 102t-46.5 161zM217 731q0 -58 33 -100q39 -48 90 -78q26 -14 60.5 -31.5t84.5 -40.5l152 -63l113 -62q57 92 57 148q0 41 -20 78t-57 67t-93 56l-213 96l-49 22l-45 24q-18 12 -35 32q-78 -69 -78 -148z" />
<glyph unicode="&#xa8;" horiz-adv-x="1024" d="M182 0v1395h727l-4 -37l-2 -25l2 -25l4 -36q-55 11 -83 15q-49 7 -101 7l-205 4h-158v-514h318l55 2l61 5l66 4l-4 -31l-2 -23l2 -21l4 -36l-66 4l-61 4l-55 2h-318v-598q20 0 165.5 4t205.5 4q42 0 82 4.5t107 14.5l-3 -22l-3 -21l-1 -19q0 -19 2 -30l5 -31h-740z M276 1645q0 35 27 64.5t68 29.5q38 0 66 -28t28 -66q0 -39 -28 -67t-66 -28q-23 0 -45.5 13t-36 35.5t-13.5 46.5zM678 1645q0 35 27 64.5t67 29.5t66 -29q28 -28 28 -65q0 -24 -12 -45t-37 -37q-4 -3 -18 -8t-27 -5q-23 0 -44.5 12.5t-36.5 35.5q-3 6 -8 19t-5 28z" />
<glyph unicode="&#xa9;" horiz-adv-x="1536" d="M41 696q0 196 97 363.5t264 266.5t364 99q98 0 188.5 -24t176.5 -74q169 -97 267.5 -264.5t98.5 -366.5q0 -198 -97.5 -364t-267 -264.5t-366.5 -98.5q-198 0 -364.5 98t-263.5 265q-47 83 -72 175t-25 189zM154 696q0 -167 83 -310.5t225 -228.5t304 -85q123 0 235.5 48 t199.5 137q43 43 77 93t58 107q48 111 48 239q0 127 -48 240.5t-133 200t-200 136.5t-237 50q-165 0 -305.5 -85t-224.5 -231q-40 -72 -61 -149.5t-21 -161.5zM340 700q0 125 60 216.5t165 139.5t234 48q135 0 262 -53q-14 -36 -25 -95h-8q-8 12 -42 34t-85.5 37t-105.5 15 q-144 0 -230 -97.5t-86 -248.5q0 -110 41.5 -187t112.5 -117t153 -40t144.5 24t120.5 58l-13 -78q-52 -33 -122 -49t-146 -16q-199 0 -314.5 111t-115.5 298z" />
<glyph unicode="&#xaa;" horiz-adv-x="1366" d="M71 734q0 224 101.5 389t277 249.5t393.5 84.5q32 0 70.5 -3t76.5 -8q86 -13 156.5 -33.5t136.5 -49.5q-26 -66 -43 -157l-14 -3q-11 15 -47 46t-86.5 60.5t-118.5 50t-139 20.5q-165 0 -287 -75t-190 -201t-82 -288h567l84 5l98 6l-1 -16l-3 -21l-2 -17l3 -32l3 -25 l-78 5q-27 3 -53 4t-51 1h-571q0 -142 40.5 -265t113.5 -206.5t174 -128.5t220 -45q142 0 253.5 54.5t181.5 111.5l-11 -129q-90 -61 -210 -88q-58 -15 -118 -22t-124 -7q-166 0 -301.5 51.5t-227.5 146.5q-95 98 -143.5 234t-48.5 301z" />
<glyph unicode="&#xab;" horiz-adv-x="1024" d="M199 459l258 379q30 -39 75 -54l-229 -323l219 -338q-48 -14 -78 -53zM492 459l258 379q30 -39 75 -54l-229 -323l219 -338q-48 -14 -78 -53z" />
<glyph unicode="&#xac;" horiz-adv-x="1241" d="M104 653v131h1033v-553h-131v422h-902z" />
<glyph unicode="&#xad;" horiz-adv-x="1241" d="M109 570v131h1033v-131h-1033z" />
<glyph unicode="&#xae;" horiz-adv-x="1536" d="M39 698q0 146 57.5 282t157 233t234 154.5t282.5 57.5q147 0 279.5 -56t232.5 -156t156.5 -233t56.5 -282t-55 -281.5t-156 -233.5t-236 -158q-66 -28 -134.5 -42t-143.5 -14q-198 0 -366.5 98t-266.5 266.5t-98 364.5zM152 698q0 -166 83.5 -310t226.5 -231 q71 -41 149 -63t159 -22q162 0 303.5 84t225 229.5t83.5 312.5t-82 311t-225 229t-305 85q-122 0 -234.5 -48t-199.5 -136t-135.5 -203t-48.5 -238zM500 307v783h258q270 0 270 -175q0 -89 -72 -143.5t-178 -73.5l252 -299l57 -63l23 -29l-38 4l-32 2l-32 -2l-37 -4l-41 56 l-35 45l-145 174l-97 106h-47v-381l-29 4l-24 2zM606 750h133q82 0 132.5 41.5t50.5 109.5q0 127 -138 127h-178v-278z" />
<glyph unicode="&#xaf;" horiz-adv-x="569" d="M4 1575q0 41 31 70q29 26 65 26q41 0 68.5 -30t27.5 -66q0 -41 -30 -68.5t-66 -27.5q-41 0 -68.5 30t-27.5 66zM195 -6v1401l52 -4l38 -2l35 2l55 4v-1401l-37 3q-18 0 -25 2l-28 1l-31 -1l-26 -2zM364 1580q0 41 31 70q29 26 65 26q41 0 68.5 -30t27.5 -66 q0 -41 -30 -68.5t-66 -27.5q-41 0 -68.5 30t-27.5 66z" />
<glyph unicode="&#xb0;" horiz-adv-x="819" d="M102 1063q0 82 40.5 151.5t112.5 112.5t155 43q60 0 116.5 -23t99.5 -66t67 -100t24 -118q0 -82 -41 -152.5t-112.5 -112.5t-153.5 -42q-126 0 -217 90t-91 217zM184 1063q0 -94 66.5 -159.5t159.5 -65.5q59 0 110.5 30t83 82t31.5 113q0 60 -30.5 111.5t-83.5 82.5 q-26 15 -53.5 23t-59.5 8q-90 0 -157 -66t-67 -159z" />
<glyph unicode="&#xb1;" horiz-adv-x="1241" d="M104 0v131h1033v-131h-1033zM104 578v131h451v325h131v-325h451v-131h-451v-332h-131v332h-451z" />
<glyph unicode="&#xb2;" horiz-adv-x="569" d="M184 1555q0 41 31 70q29 26 65 26q41 0 68.5 -30t27.5 -66q0 -41 -30 -68.5t-66 -27.5q-41 0 -68.5 30t-27.5 66zM195 -6v1401l52 -4l38 -2l35 2l55 4v-1401l-37 3q-18 0 -25 2l-28 1l-31 -1l-26 -2z" />
<glyph unicode="&#xb3;" horiz-adv-x="569" d="M180 1323q0 43 30.5 73.5t74.5 30.5q41 0 72.5 -30.5t31.5 -73.5q0 -42 -31 -73t-73 -31t-73.5 31t-31.5 73zM203 -6v979l47 -4l35 -2l33 2l49 4v-979l-34 3q-15 0 -22 2l-26 1h-25l-22 -2z" />
<glyph unicode="&#xb4;" horiz-adv-x="682" d="M193 1090l256 256l28 27l23 24l18 14l19 15l18 8q69 0 82 -43q6 -12 6 -31q0 -17 -8 -25q-6 -15 -22 -25l-29 -20l-322 -200h-69z" />
<glyph unicode="&#xb5;" horiz-adv-x="834" d="M158 -6v973l562 2v90h84v-72q0 -37 1 -76l4 -55q-129 23 -487 23v-885l-33 3q-16 0 -23 2l-26 1h-25l-22 -2z" />
<glyph unicode="&#xb6;" horiz-adv-x="1638" d="M238 1032q0 102 40 186.5t123 129.5q52 27 125 37q32 4 77 7t89 3h66h389v-1604l-28 4q-14 0 -18 2h-18l-22 -1l-18 -2l-25 -3v1538h-180v-1538l-28 4q-14 0 -18 2h-18l-22 -1l-18 -2l-25 -3v873l-74 -7q-183 0 -290 95.5t-107 279.5zM514 956q0 -239 166 -239l29 2v610 q-81 0 -123 -28t-57 -81t-15 -130v-134z" />
<glyph unicode="&#xb7;" horiz-adv-x="569" d="M162 471q0 52 38 87.5t87 35.5q33 0 59 -16.5t44 -45t18 -61.5q0 -51 -36 -87t-85 -36q-50 0 -87.5 36t-37.5 87z" />
<glyph unicode="&#x2219;" horiz-adv-x="569" d="M162 471q0 52 38 87.5t87 35.5q33 0 59 -16.5t44 -45t18 -61.5q0 -51 -36 -87t-85 -36q-50 0 -87.5 36t-37.5 87z" />
<glyph unicode="&#xb8;" horiz-adv-x="1024" d="M70 481q0 144 54 258t160.5 180t254.5 66q85 0 159 -28t132 -83.5t92 -143.5t34 -202l-1 -24l-1 -21q-69 0 -207 3t-208 3h-289l-2 -43q0 -80 23 -148.5t68.5 -121t114.5 -83t150 -30.5q157 0 303 142l-2 -107q-79 -56 -173 -89q-46 -16 -89 -24t-90 -8q-140 0 -250.5 60 t-171.5 175.5t-61 268.5zM217 1223q0 35 27 64.5t67 29.5q37 0 66 -27.5t29 -66.5q0 -38 -30 -68q-29 -27 -65 -27t-65 29t-29 66zM250 565h545q0 77 -15.5 141.5t-45.5 115.5q-58 100 -195 100q-89 0 -152 -50t-98 -133q-19 -47 -29 -88.5t-10 -85.5zM618 1223 q0 36 28.5 65t66.5 29q40 0 66 -29q28 -28 28 -65t-29 -66t-65 -29q-33 0 -64 30t-31 65z" />
<glyph unicode="&#xb9;" horiz-adv-x="2260" d="M205 -6v1401h80l972 -1055h21v1055l32 -4l25 -2l24 2l34 4v-1401h-62q-39 52 -106 125l-885 979h-21v-1104l-31 4l-26 2l-20 -1l-16 -2zM1515 990q0 88 43.5 153.5t121.5 104.5q38 17 82 27t90 10q145 0 232 -90q78 -81 78 -209q0 -86 -47 -165q-47 -69 -120.5 -104.5 t-164.5 -35.5q-65 0 -137 27q-35 14 -54 28l-49 42q-40 43 -59 96q-16 53 -16 116zM1541 501v61h594v-61h-594zM1631 972q0 -65 21 -123.5t68.5 -94.5t119.5 -36q70 0 117 45t68 109q10 32 15 61t5 60q0 101 -45.5 178.5t-147.5 77.5q-115 0 -168 -82.5t-53 -194.5z" />
<glyph unicode="&#xba;" horiz-adv-x="985" d="M72 505q0 155 66.5 268.5t185 172.5t270.5 59q188 0 323 -84l-47 -135h-16q-40 56 -55 68q-36 39 -92 60t-111 21q-79 0 -140.5 -27.5t-106.5 -78.5t-70 -116t-33 -142h194l119 4l123 6v-92l-98 4q-19 0 -67 1t-77 1h-196q0 -95 27.5 -171.5t80.5 -138.5 q102 -118 264 -118q83 0 147 33.5t136 99.5l12 -6l-10 -94q-139 -103 -313 -103q-169 0 -284.5 67t-173.5 181t-58 260z" />
<glyph unicode="&#xbb;" horiz-adv-x="1024" d="M199 123l229 323l-219 338q48 15 78 54l245 -389l-258 -379q-30 38 -75 53zM492 123l229 323l-219 338q48 15 78 54l245 -389l-258 -379q-30 38 -75 53z" />
<glyph unicode="&#xbc;" horiz-adv-x="1241" d="M109 570v131h1033v-131h-1033zM482 927q0 52 38 88q35 32 82 32q52 0 88 -38q16 -17 24 -38t8 -44q0 -51 -36 -85.5t-84 -34.5q-52 0 -86 36.5t-34 83.5zM492 337q0 52 38 88q35 32 82 32q52 0 88 -38q16 -17 24 -38t8 -44q0 -51 -36 -85.5t-84 -34.5q-52 0 -86 36.5 t-34 83.5z" />
<glyph unicode="&#xbd;" horiz-adv-x="1241" d="M197 973l92 93l330 -330l319 319l93 -93l-319 -319l335 -334l-93 -93l-335 335l-319 -319l-92 93l319 318z" />
<glyph unicode="&#xbe;" horiz-adv-x="2048" d="M219 100q0 52 38 87.5t87 35.5q34 0 60.5 -16.5t43.5 -45t17 -61.5q0 -47 -36.5 -85t-84.5 -38q-49 0 -87 36.5t-38 86.5zM901 100q0 52 38 87.5t87 35.5q34 0 60.5 -16.5t43.5 -45t17 -61.5q0 -47 -36.5 -85t-84.5 -38q-49 0 -87 36.5t-38 86.5zM1583 100q0 52 38 87.5 t87 35.5q34 0 60.5 -16.5t43.5 -45t17 -61.5q0 -47 -36.5 -85t-84.5 -38q-49 0 -87 36.5t-38 86.5z" />
<glyph unicode="&#xbf;" horiz-adv-x="569" d="M12 1347q0 43 30.5 73.5t74.5 30.5q41 0 72.5 -30.5t31.5 -73.5q0 -42 -31 -73t-73 -31t-73.5 31t-31.5 73zM203 -6v979l47 -4l35 -2l33 2l49 4v-979l-34 3q-15 0 -22 2l-26 1h-25l-22 -2zM348 1339q0 43 30.5 73.5t74.5 30.5q41 0 72.5 -30.5t31.5 -73.5q0 -42 -31 -73 t-73 -31t-73.5 31t-31.5 73z" />
<glyph unicode="&#xc0;" horiz-adv-x="1327" d="M12 -6l639 1431h47l615 -1431l-44 3h-12q-5 0 -17 2l-34 1h-33l-29 -2l-46 -4q-46 129 -68 189q-15 41 -39 102q-48 125 -108 262h-521l-51 -129l-61 -160l-46 -128l-44 -136l-32 3q-14 0 -20 2l-24 1h-23l-19 -2zM401 633h451l-227 524z" />
<glyph unicode="&#x410;" horiz-adv-x="1327" d="M12 -6l639 1431h47l615 -1431l-44 3h-12q-5 0 -17 2l-34 1h-33l-29 -2l-46 -4q-46 129 -68 189q-15 41 -39 102q-48 125 -108 262h-521l-51 -129l-61 -160l-46 -128l-44 -136l-32 3q-14 0 -20 2l-24 1h-23l-19 -2zM401 633h451l-227 524z" />
<glyph unicode="&#xc1;" horiz-adv-x="1214" d="M186 0v1395h830q-6 -23 -6 -62q0 -32 6 -61q-53 10 -102 16t-83 6l-245 4h-219v-516h188q293 0 421 -84.5t128 -271.5q0 -120 -56 -213.5t-163 -149.5q-56 -29 -115.5 -45t-124.5 -16zM367 84h204q101 0 179 44.5t120.5 120.5t42.5 167q0 110 -66 191t-183 93 q-38 5 -125 5l-87 -1q-17 0 -45.5 -1t-39.5 -1v-618z" />
<glyph unicode="&#x411;" horiz-adv-x="1214" d="M186 0v1395h830q-6 -23 -6 -62q0 -32 6 -61q-53 10 -102 16t-83 6l-245 4h-219v-516h188q293 0 421 -84.5t128 -271.5q0 -120 -56 -213.5t-163 -149.5q-56 -29 -115.5 -45t-124.5 -16zM367 84h204q101 0 179 44.5t120.5 120.5t42.5 167q0 110 -66 191t-183 93 q-38 5 -125 5l-87 -1q-17 0 -45.5 -1t-39.5 -1v-618z" />
<glyph unicode="&#xc2;" horiz-adv-x="1214" d="M0 0h184v1395h412q152 0 252.5 -27t152.5 -89.5t52 -166.5q0 -69 -24 -127.5t-68 -105.5t-103 -79q-53 -28 -129 -50q29 0 61 -5.5t69 -16.5q68 -18 121 -56q53 -35 88.5 -96.5t35.5 -147.5q0 -217 -184 -346q-53 -35 -126 -55q-66 -16 -141 -23l-166 -4h-487zM365 76 h204q100 0 178 40t122 113.5t44 163.5q0 116 -51.5 183.5t-146.5 95.5t-226 28h-124v-624zM365 780h73q93 0 156 7.5t123 33.5q74 32 115.5 99t41.5 149q0 93 -40.5 149t-117.5 78.5t-190 22.5h-161v-539z" />
<glyph unicode="&#x412;" horiz-adv-x="1214" d="M0 0h184v1395h412q152 0 252.5 -27t152.5 -89.5t52 -166.5q0 -69 -24 -127.5t-68 -105.5t-103 -79q-53 -28 -129 -50q29 0 61 -5.5t69 -16.5q68 -18 121 -56q53 -35 88.5 -96.5t35.5 -147.5q0 -217 -184 -346q-53 -35 -126 -55q-66 -16 -141 -23l-166 -4h-487zM365 76 h204q100 0 178 40t122 113.5t44 163.5q0 116 -51.5 183.5t-146.5 95.5t-226 28h-124v-624zM365 780h73q93 0 156 7.5t123 33.5q74 32 115.5 99t41.5 149q0 93 -40.5 149t-117.5 78.5t-190 22.5h-161v-539z" />
<glyph unicode="&#xc3;" horiz-adv-x="985" d="M184 -4v1399h727l-4 -37l-2 -25l2 -25l4 -36q-55 11 -83 15q-49 7 -101 7l-205 4h-157v-1302l-91 4q-8 0 -38 -2t-52 -2z" />
<glyph unicode="&#x413;" horiz-adv-x="985" d="M184 -4v1399h727l-4 -37l-2 -25l2 -25l4 -36q-55 11 -83 15q-49 7 -101 7l-205 4h-157v-1302l-91 4q-8 0 -38 -2t-52 -2z" />
<glyph unicode="&#xc4;" horiz-adv-x="1366" d="M-6 -86q6 30 6 102l-6 82h88l139 310l170 388l157 368q69 164 93 231h98l176 -424l222 -533l145 -340h88q-6 -33 -6 -82q0 -66 6 -102h-18q-39 60 -127 73t-283 13h-500q-49 0 -101.5 -1t-110.5 -3q-34 0 -64.5 -5.5t-63.5 -16.5q-55 -18 -94 -60h-14zM213 98h877 l-101 250l-168 418l-120 295l-44 110h-8l-109 -244l-105 -247q-69 -165 -116 -289.5t-106 -292.5z" />
<glyph unicode="&#x414;" horiz-adv-x="1366" d="M-6 -86q6 30 6 102l-6 82h88l139 310l170 388l157 368q69 164 93 231h98l176 -424l222 -533l145 -340h88q-6 -33 -6 -82q0 -66 6 -102h-18q-39 60 -127 73t-283 13h-500q-49 0 -101.5 -1t-110.5 -3q-34 0 -64.5 -5.5t-63.5 -16.5q-55 -18 -94 -60h-14zM213 98h877 l-101 250l-168 418l-120 295l-44 110h-8l-109 -244l-105 -247q-69 -165 -116 -289.5t-106 -292.5z" />
<glyph unicode="&#xc5;" horiz-adv-x="1024" d="M182 0v1395h727l-4 -37l-2 -25l2 -25l4 -36q-55 11 -83 15q-49 7 -101 7l-205 4h-158v-514h318l55 2l61 5l66 4l-4 -31l-2 -23l2 -21l4 -36l-66 4l-61 4l-55 2h-318v-598q20 0 165.5 4t205.5 4q42 0 82 4.5t107 14.5l-3 -22l-3 -21l-1 -19q0 -19 2 -30l5 -31h-740z" />
<glyph unicode="&#x415;" horiz-adv-x="1024" d="M182 0v1395h727l-4 -37l-2 -25l2 -25l4 -36q-55 11 -83 15q-49 7 -101 7l-205 4h-158v-514h318l55 2l61 5l66 4l-4 -31l-2 -23l2 -21l4 -36l-66 4l-61 4l-55 2h-318v-598q20 0 165.5 4t205.5 4q42 0 82 4.5t107 14.5l-3 -22l-3 -21l-1 -19q0 -19 2 -30l5 -31h-740z" />
<glyph unicode="&#xc6;" horiz-adv-x="1821" d="M37 4l102 132l192 248l189 238q22 27 50 61q52 63 75 89l-584 623l22 -1l17 -1l21 -3l20 -1q16 0 24 2q15 0 22 2l16 1l20 1l186 -212l238 -270q108 -121 129 -139l18 -9l21 -9q6 0 6 6v633l28 -2l35 -3l27 -1l26 1l27 3l19 1l18 1v-633q4 -4 7 -4q16 0 39 16 q10 9 43 44.5t86 95.5l237 269l186 212l25 -2l32 -3l25 -1q13 0 21 2q14 0 21 2l17 1l21 1l-583 -623q28 -32 82 -99q63 -78 130 -162q62 -77 95 -119q73 -92 83 -105q25 -32 71 -93l147 -190v-10q-57 6 -113 6q-63 0 -114 -6l-88 121l-180 243l-162 218l-93 126q-4 5 -8 7 l-18 4q-4 0 -6 -1t-3 -3v-715q-54 6 -94 6l-86 -6v715q-34 0 -35 -7l-168 -226l-233 -316l-121 -166l-43 3h-13q-7 0 -19 2l-39 1l-36 -1l-31 -2l-46 -3v10z" />
<glyph unicode="&#x416;" horiz-adv-x="1821" d="M37 4l102 132l192 248l189 238q22 27 50 61q52 63 75 89l-584 623l22 -1l17 -1l21 -3l20 -1q16 0 24 2q15 0 22 2l16 1l20 1l186 -212l238 -270q108 -121 129 -139l18 -9l21 -9q6 0 6 6v633l28 -2l35 -3l27 -1l26 1l27 3l19 1l18 1v-633q4 -4 7 -4q16 0 39 16 q10 9 43 44.5t86 95.5l237 269l186 212l25 -2l32 -3l25 -1q13 0 21 2q14 0 21 2l17 1l21 1l-583 -623q28 -32 82 -99q63 -78 130 -162q62 -77 95 -119q73 -92 83 -105q25 -32 71 -93l147 -190v-10q-57 6 -113 6q-63 0 -114 -6l-88 121l-180 243l-162 218l-93 126q-4 5 -8 7 l-18 4q-4 0 -6 -1t-3 -3v-715q-54 6 -94 6l-86 -6v715q-34 0 -35 -7l-168 -226l-233 -316l-121 -166l-43 3h-13q-7 0 -19 2l-39 1l-36 -1l-31 -2l-46 -3v10z" />
<glyph unicode="&#xc7;" horiz-adv-x="1251" d="M90 80q9 17 15 40l10 51l6 40l16 8q51 -69 157 -119.5t202 -50.5q130 0 219.5 39.5t134.5 115.5t45 183q0 70 -24.5 126.5t-68 96t-113 63t-148.5 23.5l-185 -6q9 15 9 45q0 10 -9 43l160 -4q153 0 231 81t78 212q0 121 -83 201t-232 80q-123 0 -208 -42.5t-122 -119.5 l-12 -6l-66 116q46 42 153 86q52 21 117.5 32t147.5 11q137 0 252.5 -39t185.5 -117t70 -188q0 -121 -84.5 -211t-241.5 -127q56 0 103.5 -13t102.5 -39q92 -42 145 -119.5t53 -180.5q0 -138 -77 -232.5t-216.5 -142t-320.5 -47.5q-97 0 -208.5 30.5t-193.5 80.5z" />
<glyph unicode="&#x417;" horiz-adv-x="1251" d="M90 80q9 17 15 40l10 51l6 40l16 8q51 -69 157 -119.5t202 -50.5q130 0 219.5 39.5t134.5 115.5t45 183q0 70 -24.5 126.5t-68 96t-113 63t-148.5 23.5l-185 -6q9 15 9 45q0 10 -9 43l160 -4q153 0 231 81t78 212q0 121 -83 201t-232 80q-123 0 -208 -42.5t-122 -119.5 l-12 -6l-66 116q46 42 153 86q52 21 117.5 32t147.5 11q137 0 252.5 -39t185.5 -117t70 -188q0 -121 -84.5 -211t-241.5 -127q56 0 103.5 -13t102.5 -39q92 -42 145 -119.5t53 -180.5q0 -138 -77 -232.5t-216.5 -142t-320.5 -47.5q-97 0 -208.5 30.5t-193.5 80.5z" />
<glyph unicode="&#xc8;" horiz-adv-x="1593" d="M184 -6v1401q21 -6 90 -6l91 6v-1069h20l932 1069h90v-1401q-54 6 -90 6q-30 0 -90 -6v1118h-21l-854 -993q-66 -72 -106 -125h-62z" />
<glyph unicode="&#x418;" horiz-adv-x="1593" d="M184 -6v1401q21 -6 90 -6l91 6v-1069h20l932 1069h90v-1401q-54 6 -90 6q-30 0 -90 -6v1118h-21l-854 -993q-66 -72 -106 -125h-62z" />
<glyph unicode="&#xc9;" horiz-adv-x="1593" d="M184 -6v1401q30 -6 90 -6q61 0 91 6v-1069h20l932 1069h90v-1401q-54 6 -90 6q-30 0 -90 -6v1118h-21l-310 -360l-428 -499l-222 -259h-62zM381 1563l53 84q157 -101 369 -101q215 0 375 101l49 -82q-93 -56 -201.5 -86.5t-222.5 -30.5q-222 0 -422 115z" />
<glyph unicode="&#x419;" horiz-adv-x="1593" d="M184 -6v1401q30 -6 90 -6q61 0 91 6v-1069h20l932 1069h90v-1401q-54 6 -90 6q-30 0 -90 -6v1118h-21l-310 -360l-428 -499l-222 -259h-62zM381 1563l53 84q157 -101 369 -101q215 0 375 101l49 -82q-93 -56 -201.5 -86.5t-222.5 -30.5q-222 0 -422 115z" />
<glyph unicode="&#xca;" horiz-adv-x="1251" d="M184 -6v1401l52 -4l38 -2l36 2l55 4v-633q6 -4 10 -4q16 0 41 16q18 14 43.5 37.5t64.5 62.5l504 521l47 -4l35 -2l32 2l48 4l-465 -447l-174 -176l172 -195l200 -224l126 -144l165 -205v-10l-45 3h-13q-7 0 -19 2l-35 1l-53 -2l-62 -4q-79 114 -141 186l-447 522 q-13 11 -28 11q-2 0 -3 -1l-3 -3v-715l-37 3q-18 0 -25 2l-29 1l-41 -2z" />
<glyph unicode="&#x41a;" horiz-adv-x="1251" d="M184 -6v1401l52 -4l38 -2l36 2l55 4v-633q6 -4 10 -4q16 0 41 16q18 14 43.5 37.5t64.5 62.5l504 521l47 -4l35 -2l32 2l48 4l-465 -447l-174 -176l172 -195l200 -224l126 -144l165 -205v-10l-45 3h-13q-7 0 -19 2l-35 1l-53 -2l-62 -4q-79 114 -141 186l-447 522 q-13 11 -28 11q-2 0 -3 -1l-3 -3v-715l-37 3q-18 0 -25 2l-29 1l-41 -2z" />
<glyph unicode="&#xcb;" horiz-adv-x="1327" d="M12 -6l173 375q66 146 139 313q62 141 133 307q124 292 164 406h96l165 -401l252 -600q141 -332 177 -400l-42 4h-14h-8q-5 2 -7 2h-28l-32 -1l-28 -2l-40 -3l-78 199l-156 394l-143 363l-88 221h-18q-1 -3 -70 -161q-32 -75 -63 -147t-60 -141q-75 -180 -148 -372 q-69 -183 -126 -356l-41 4l-35 2l-23 -1l-21 -2z" />
<glyph unicode="&#x41b;" horiz-adv-x="1327" d="M12 -6l173 375q66 146 139 313q62 141 133 307q124 292 164 406h96l165 -401l252 -600q141 -332 177 -400l-42 4h-14h-8q-5 2 -7 2h-28l-32 -1l-28 -2l-40 -3l-78 199l-156 394l-143 363l-88 221h-18q-1 -3 -70 -161q-32 -75 -63 -147t-60 -141q-75 -180 -148 -372 q-69 -183 -126 -356l-41 4l-35 2l-23 -1l-21 -2z" />
<glyph unicode="&#xcc;" horiz-adv-x="1821" d="M96 -6l64 420l82 583q41 297 51 398h53l149 -293l104 -200l148 -270q53 -95 85 -150q40 -70 94 -160l158 288l212 389q48 87 91 165q36 66 73 132q33 60 56 99h43l37 -346q20 -195 43 -379l40 -332l45 -344l-40 3q-18 0 -26 2l-30 1l-45 -2l-51 -4q0 82 -14 207 q-8 64 -15 129l-27 277l-24 239q-14 141 -25 205q-74 -132 -122 -218q-60 -108 -103 -189q-39 -73 -60 -113q-7 -14 -58 -113q-22 -42 -57 -113q-78 -159 -136 -289h-23l-112 232q-36 74 -86 174q-46 91 -107 207l-221 422q-9 -80 -16.5 -150t-18.5 -153l-34 -305l-24 -274 q0 -32 -3.5 -91t-3.5 -84l-30 3q-13 0 -19 2l-23 1l-26 -1l-20 -2z" />
<glyph unicode="&#x41c;" horiz-adv-x="1821" d="M96 -6l64 420l82 583q41 297 51 398h53l149 -293l104 -200l148 -270q53 -95 85 -150q40 -70 94 -160l158 288l212 389q48 87 91 165q36 66 73 132q33 60 56 99h43l37 -346q20 -195 43 -379l40 -332l45 -344l-40 3q-18 0 -26 2l-30 1l-45 -2l-51 -4q0 82 -14 207 q-8 64 -15 129l-27 277l-24 239q-14 141 -25 205q-74 -132 -122 -218q-60 -108 -103 -189q-39 -73 -60 -113q-7 -14 -58 -113q-22 -42 -57 -113q-78 -159 -136 -289h-23l-112 232q-36 74 -86 174q-46 91 -107 207l-221 422q-9 -80 -16.5 -150t-18.5 -153l-34 -305l-24 -274 q0 -32 -3.5 -91t-3.5 -84l-30 3q-13 0 -19 2l-23 1l-26 -1l-20 -2z" />
<glyph unicode="&#xcd;" horiz-adv-x="1593" d="M184 -6v1401l52 -4l38 -2l36 2l55 4v-588l432 -10q92 4 216.5 7t213.5 3v588l52 -4l38 -2l36 2l54 4v-1401l-37 3q-17 0 -24 2l-29 1l-31 -1l-26 -2l-33 -3v704l-144 4l-167 5l-119 2l-120 -2q-30 0 -90 -2.5t-78 -2.5l-144 -4v-704l-37 3q-18 0 -25 2l-29 1l-41 -2z" />
<glyph unicode="&#x41d;" horiz-adv-x="1593" d="M184 -6v1401l52 -4l38 -2l36 2l55 4v-588l432 -10q92 4 216.5 7t213.5 3v588l52 -4l38 -2l36 2l54 4v-1401l-37 3q-17 0 -24 2l-29 1l-31 -1l-26 -2l-33 -3v704l-144 4l-167 5l-119 2l-120 -2q-30 0 -90 -2.5t-78 -2.5l-144 -4v-704l-37 3q-18 0 -25 2l-29 1l-41 -2z" />
<glyph unicode="&#xce;" horiz-adv-x="1706" d="M86 694q0 164 57 300t163 234q102 94 239.5 145.5t298.5 51.5q148 0 288 -41.5t249.5 -127.5t174 -219.5t64.5 -311.5q0 -222 -99 -394t-278 -267t-403 -95q-167 0 -307.5 51t-240 147.5t-153.5 231.5q-27 68 -40 139.5t-13 155.5zM287 670q0 -149 41.5 -266.5 t120 -200.5t181.5 -124.5t216 -41.5q145 0 254.5 62.5t179 164t104.5 223t35 222.5t-10 171t-39.5 143.5t-79.5 136.5t-116.5 106.5t-148.5 67.5t-161 24q-133 0 -241 -49t-183 -139.5t-114 -219t-39 -280.5z" />
<glyph unicode="&#x41e;" horiz-adv-x="1706" d="M86 694q0 164 57 300t163 234q102 94 239.5 145.5t298.5 51.5q148 0 288 -41.5t249.5 -127.5t174 -219.5t64.5 -311.5q0 -222 -99 -394t-278 -267t-403 -95q-167 0 -307.5 51t-240 147.5t-153.5 231.5q-27 68 -40 139.5t-13 155.5zM287 670q0 -149 41.5 -266.5 t120 -200.5t181.5 -124.5t216 -41.5q145 0 254.5 62.5t179 164t104.5 223t35 222.5t-10 171t-39.5 143.5t-79.5 136.5t-116.5 106.5t-148.5 67.5t-161 24q-133 0 -241 -49t-183 -139.5t-114 -219t-39 -280.5z" />
<glyph unicode="&#xcf;" horiz-adv-x="1593" d="M184 -6v1401h1223v-1401l-37 3q-17 0 -24 2l-29 1l-31 -1l-26 -2l-33 -3v1298q-74 0 -217 3t-213 3q-69 0 -213 -3t-219 -3v-1298l-37 3q-18 0 -25 2l-29 1l-41 -2z" />
<glyph unicode="&#x41f;" horiz-adv-x="1593" d="M184 -6v1401h1223v-1401l-37 3q-17 0 -24 2l-29 1l-31 -1l-26 -2l-33 -3v1298q-74 0 -217 3t-213 3q-69 0 -213 -3t-219 -3v-1298l-37 3q-18 0 -25 2l-29 1l-41 -2z" />
<glyph unicode="&#xd0;" horiz-adv-x="1176" d="M184 -6v1401h367q197 0 312 -32t165.5 -105.5t50.5 -198.5q0 -123 -48.5 -204.5t-143.5 -132.5t-246 -81q-20 -4 -52 -7t-67 -3h-18q-5 0 -16 1t-18 1h-19h-14q-10 2 -14 2l-30 1l-28 1v-643l-37 3q-18 0 -25 2l-29 1l-41 -2zM365 717l94 -4q9 0 45 2t63 2 q101 10 173.5 53.5t111.5 115t39 163.5q0 69 -24.5 127.5t-76 93.5t-131.5 43q-8 0 -60 2t-97 2h-81q-37 0 -56 -2v-598z" />
<glyph unicode="&#x420;" horiz-adv-x="1176" d="M184 -6v1401h367q197 0 312 -32t165.5 -105.5t50.5 -198.5q0 -123 -48.5 -204.5t-143.5 -132.5t-246 -81q-20 -4 -52 -7t-67 -3h-18q-5 0 -16 1t-18 1h-19h-14q-10 2 -14 2l-30 1l-28 1v-643l-37 3q-18 0 -25 2l-29 1l-41 -2zM365 717l94 -4q9 0 45 2t63 2 q101 10 173.5 53.5t111.5 115t39 163.5q0 69 -24.5 127.5t-76 93.5t-131.5 43q-8 0 -60 2t-97 2h-81q-37 0 -56 -2v-598z" />
<glyph unicode="&#xd1;" horiz-adv-x="1366" d="M78 702q0 225 101 388.5t278 249t393 85.5q75 0 151 -10t149.5 -32t139.5 -52q-25 -64 -43 -157l-14 -3q-24 31 -75.5 69.5t-135.5 73t-180 34.5q-180 0 -306.5 -87.5t-191.5 -240t-65 -326.5q0 -192 69 -338.5t194.5 -226.5t284.5 -80q102 0 191.5 30.5t148 68 t95.5 67.5l-11 -129q-59 -40 -136 -67q-70 -24 -151 -37t-165 -13q-168 0 -301.5 50.5t-226.5 146.5t-143 234t-50 302z" />
<glyph unicode="&#x421;" horiz-adv-x="1366" d="M78 702q0 225 101 388.5t278 249t393 85.5q75 0 151 -10t149.5 -32t139.5 -52q-25 -64 -43 -157l-14 -3q-24 31 -75.5 69.5t-135.5 73t-180 34.5q-180 0 -306.5 -87.5t-191.5 -240t-65 -326.5q0 -192 69 -338.5t194.5 -226.5t284.5 -80q102 0 191.5 30.5t148 68 t95.5 67.5l-11 -129q-59 -40 -136 -67q-70 -24 -151 -37t-165 -13q-168 0 -301.5 50.5t-226.5 146.5t-143 234t-50 302z" />
<glyph unicode="&#xd2;" d="M41 1272l4 33l2 28l-1 20l-2 16l-3 26h1057l-4 -37l-2 -25l2 -25l4 -36l-198 17q-39 0 -84 2q-114 5 -146 5v-1302q-48 6 -90 6q-46 0 -91 -6v1302q-212 0 -448 -24z" />
<glyph unicode="&#x422;" d="M41 1272l4 33l2 28l-1 20l-2 16l-3 26h1057l-4 -37l-2 -25l2 -25l4 -36l-198 17q-39 0 -84 2q-114 5 -146 5v-1302q-48 6 -90 6q-46 0 -91 -6v1302q-212 0 -448 -24z" />
<glyph unicode="&#xd3;" horiz-adv-x="1327" d="M12 1395l127 -6l43 2l68 4q135 -223 254 -400q128 -191 274 -381h23l81 163l112 226l110 227q11 22 41 90q23 51 33 75q33 -6 69 -6l29 2l45 4l-100 -184l-238 -462l-258 -510l-119 -245q-42 6 -63 6q-48 0 -92 -6q67 105 143 240l100 182l-129 188l-182 265l-213 306 q-61 87 -101 142q-43 60 -57 78z" />
<glyph unicode="&#x423;" horiz-adv-x="1327" d="M12 1395l127 -6l43 2l68 4q135 -223 254 -400q128 -191 274 -381h23l81 163l112 226l110 227q11 22 41 90q23 51 33 75q33 -6 69 -6l29 2l45 4l-100 -184l-238 -462l-258 -510l-119 -245q-42 6 -63 6q-48 0 -92 -6q67 105 143 240l100 182l-129 188l-182 265l-213 306 q-61 87 -101 142q-43 60 -57 78z" />
<glyph unicode="&#xd4;" horiz-adv-x="1821" d="M86 705q0 168 86.5 300.5t252 207.5t394.5 75v107q27 -6 90 -6q60 0 90 6v-107q227 0 393 -74.5t253.5 -206.5t87.5 -302q0 -122 -48.5 -229.5t-144 -189.5t-233 -126.5t-308.5 -44.5v-121q-27 6 -90 6q-60 0 -90 -6v121q-226 0 -391.5 78t-253.5 212.5t-88 299.5z M287 705q0 -143 66 -261t188 -186t278 -68v1031q-126 0 -226.5 -39.5t-166 -109t-102.5 -164.5t-37 -203zM999 190q158 0 279 67.5t187.5 185t66.5 262.5q0 105 -35 197.5t-103 163.5t-168 113t-227 42v-1031z" />
<glyph unicode="&#x424;" horiz-adv-x="1821" d="M86 705q0 168 86.5 300.5t252 207.5t394.5 75v107q27 -6 90 -6q60 0 90 6v-107q227 0 393 -74.5t253.5 -206.5t87.5 -302q0 -122 -48.5 -229.5t-144 -189.5t-233 -126.5t-308.5 -44.5v-121q-27 6 -90 6q-60 0 -90 -6v121q-226 0 -391.5 78t-253.5 212.5t-88 299.5z M287 705q0 -143 66 -261t188 -186t278 -68v1031q-126 0 -226.5 -39.5t-166 -109t-102.5 -164.5t-37 -203zM999 190q158 0 279 67.5t187.5 185t66.5 262.5q0 105 -35 197.5t-103 163.5t-168 113t-227 42v-1031z" />
<glyph unicode="&#xd5;" horiz-adv-x="1251" d="M74 -6l63 93l90 130l95 139l227 342l-79 129l-91 151l-66 107l-202 310l64 -4l46 -2l45 2l66 4l48 -81l56 -95l217 -373l102 158l88 133l69 109q42 70 85 149l43 -4l33 -2l31 2l45 4l-35 -41l-313 -436l-101 -152l476 -772l-46 3h-13q-6 0 -18 2l-36 1l-52 -2l-61 -4 q-24 46 -47 92q-36 68 -72 134q-56 103 -113 197q-33 56 -44 74q-38 62 -78 125q-70 -105 -126 -196l-117 -197l-128 -229l-34 4q-16 0 -20 2h-21l-27 -1l-21 -2z" />
<glyph unicode="&#x425;" horiz-adv-x="1251" d="M74 -6l63 93l90 130l95 139l227 342l-79 129l-91 151l-66 107l-202 310l64 -4l46 -2l45 2l66 4l48 -81l56 -95l217 -373l102 158l88 133l69 109q42 70 85 149l43 -4l33 -2l31 2l45 4l-35 -41l-313 -436l-101 -152l476 -772l-46 3h-13q-6 0 -18 2l-36 1l-52 -2l-61 -4 q-24 46 -47 92q-36 68 -72 134q-56 103 -113 197q-33 56 -44 74q-38 62 -78 125q-70 -105 -126 -196l-117 -197l-128 -229l-34 4q-16 0 -20 2h-21l-27 -1l-21 -2z" />
<glyph unicode="&#xd6;" horiz-adv-x="1593" d="M184 -6v1407q39 -6 90 -6q46 0 91 6v-1301h852v1301q33 -6 90 -6q42 0 90 6v-1303h114l-4 -44l-2 -38l1 -22l2 -42l3 -38h-18q-27 42 -79 60q-26 9 -58 15.5t-63 6.5l-210 4h-295q-200 0 -322 -1.5t-282 -4.5z" />
<glyph unicode="&#x426;" horiz-adv-x="1593" d="M184 -6v1407q39 -6 90 -6q46 0 91 6v-1301h852v1301q33 -6 90 -6q42 0 90 6v-1303h114l-4 -44l-2 -38l1 -22l2 -42l3 -38h-18q-27 42 -79 60q-26 9 -58 15.5t-63 6.5l-210 4h-295q-200 0 -322 -1.5t-282 -4.5z" />
<glyph unicode="&#xd7;" horiz-adv-x="1479" d="M147 889v506l52 -4l39 -2l35 2l55 4v-506q0 -110 108.5 -161.5t247.5 -51.5q105 0 228.5 39t199.5 92v588l51 -4l39 -2l37 2l53 4v-1401l-37 3q-17 0 -24 2l-29 1l-42 -2l-48 -4v704q-55 -29 -139 -61q-37 -14 -81 -26.5t-97 -23.5q-95 -18 -193 -18q-101 0 -207.5 36 t-177 109t-70.5 175z" />
<glyph unicode="&#x427;" horiz-adv-x="1479" d="M147 889v506l52 -4l39 -2l35 2l55 4v-506q0 -110 108.5 -161.5t247.5 -51.5q105 0 228.5 39t199.5 92v588l51 -4l39 -2l37 2l53 4v-1401l-37 3q-17 0 -24 2l-29 1l-42 -2l-48 -4v704q-55 -29 -139 -61q-37 -14 -81 -26.5t-97 -23.5q-95 -18 -193 -18q-101 0 -207.5 36 t-177 109t-70.5 175z" />
<glyph unicode="&#xd8;" horiz-adv-x="1821" d="M184 -6v1407q39 -6 90 -6q43 0 91 6v-1301h454v1301q42 -6 90 -6q60 0 90 6v-1301h455v1301q42 -6 90 -6q45 0 90 6v-1407q-72 0 -193.5 1.5t-265.5 3t-266 1.5l-469 -1q-64 0 -158 -2.5t-98 -2.5z" />
<glyph unicode="&#x428;" horiz-adv-x="1821" d="M184 -6v1407q39 -6 90 -6q43 0 91 6v-1301h454v1301q42 -6 90 -6q60 0 90 6v-1301h455v1301q42 -6 90 -6q45 0 90 6v-1407q-72 0 -193.5 1.5t-265.5 3t-266 1.5l-469 -1q-64 0 -158 -2.5t-98 -2.5z" />
<glyph unicode="&#xd9;" horiz-adv-x="1821" d="M184 -6v1407q39 -6 90 -6q46 0 91 6v-1301h452v1301q42 -6 90 -6t90 6v-1301h453v1301q33 -6 90 -6q42 0 90 6v-1303h115l-4 -44l-2 -38l1 -22l2 -42l3 -38h-19q-26 39 -76 57.5t-124 24.5l-209 4h-406q-259 0 -368 -1t-206.5 -2.5t-152.5 -2.5z" />
<glyph unicode="&#x429;" horiz-adv-x="1821" d="M184 -6v1407q39 -6 90 -6q46 0 91 6v-1301h452v1301q42 -6 90 -6t90 6v-1301h453v1301q33 -6 90 -6q42 0 90 6v-1303h115l-4 -44l-2 -38l1 -22l2 -42l3 -38h-19q-26 39 -76 57.5t-124 24.5l-209 4h-406q-259 0 -368 -1t-206.5 -2.5t-152.5 -2.5z" />
<glyph unicode="&#xda;" horiz-adv-x="1176" d="M-14 1272q6 30 6 61q0 29 -6 62h399v-633h186q199 0 313.5 -32t165 -105.5t50.5 -198.5q0 -93 -27 -161.5t-81 -116.5t-136 -82t-194 -58q-25 -4 -87 -7t-149 -3q-25 0 -68 1t-61 1h-92v1294q-118 0 -219 -22zM385 84h203q153 15 238 104t85 228q0 110 -57 181.5 t-174 82.5q-23 2 -48 3t-77 1l-100 -1l-70 -1v-598z" />
<glyph unicode="&#x42a;" horiz-adv-x="1176" d="M-14 1272q6 30 6 61q0 29 -6 62h399v-633h186q199 0 313.5 -32t165 -105.5t50.5 -198.5q0 -93 -27 -161.5t-81 -116.5t-136 -82t-194 -58q-25 -4 -87 -7t-149 -3q-25 0 -68 1t-61 1h-92v1294q-118 0 -219 -22zM385 84h203q153 15 238 104t85 228q0 110 -57 181.5 t-174 82.5q-23 2 -48 3t-77 1l-100 -1l-70 -1v-598z" />
<glyph unicode="&#xdb;" horiz-adv-x="1630" d="M184 0v1395l52 -4l38 -2l36 2l55 4v-633h186q197 0 312 -32t165.5 -105.5t50.5 -198.5q0 -183 -104 -281t-334 -137q-27 -4 -99.5 -7t-174.5 -3q-20 0 -56 1t-51 1h-76zM365 84h202q101 10 173.5 53.5t111.5 115t39 163.5q0 111 -57.5 182t-174.5 82q-22 2 -47 3t-77 1 l-100 -1l-70 -1v-598zM1266 -6v1401q42 -6 90 -6q58 0 90 6v-1401l-37 3q-18 0 -25 2l-28 1l-31 -1l-26 -2z" />
<glyph unicode="&#x42b;" horiz-adv-x="1630" d="M184 0v1395l52 -4l38 -2l36 2l55 4v-633h186q197 0 312 -32t165.5 -105.5t50.5 -198.5q0 -183 -104 -281t-334 -137q-27 -4 -99.5 -7t-174.5 -3q-20 0 -56 1t-51 1h-76zM365 84h202q101 10 173.5 53.5t111.5 115t39 163.5q0 111 -57.5 182t-174.5 82q-22 2 -47 3t-77 1 l-100 -1l-70 -1v-598zM1266 -6v1401q42 -6 90 -6q58 0 90 6v-1401l-37 3q-18 0 -25 2l-28 1l-31 -1l-26 -2z" />
<glyph unicode="&#xdc;" horiz-adv-x="1176" d="M184 0v1395q42 -6 90 -6l37 2l54 4v-633h186q197 0 312 -32t165.5 -105.5t50.5 -198.5q0 -123 -48.5 -204t-143 -131.5t-246.5 -82.5q-60 -10 -235 -10q-24 0 -67.5 1t-62.5 1h-92zM365 84h202q101 10 173.5 53.5t111.5 115t39 163.5q0 111 -57.5 182t-174.5 82 q-22 2 -47 3t-77 1l-100 -1l-70 -1v-598z" />
<glyph unicode="&#x42c;" horiz-adv-x="1176" d="M184 0v1395q42 -6 90 -6l37 2l54 4v-633h186q197 0 312 -32t165.5 -105.5t50.5 -198.5q0 -123 -48.5 -204t-143 -131.5t-246.5 -82.5q-60 -10 -235 -10q-24 0 -67.5 1t-62.5 1h-92zM365 84h202q101 10 173.5 53.5t111.5 115t39 163.5q0 111 -57.5 182t-174.5 82 q-22 2 -47 3t-77 1l-100 -1l-70 -1v-598z" />
<glyph unicode="&#xdd;" horiz-adv-x="1366" d="M76 1331q66 29 140 51q33 9 72 17.5t81 14.5q80 11 147 11q218 0 393.5 -84.5t277 -249.5t101.5 -389q0 -165 -48.5 -301t-142 -232.5t-229 -148t-301.5 -51.5q-61 0 -121.5 7t-120.5 22q-120 27 -210 88l-11 129q70 -57 181.5 -111.5t253.5 -54.5q119 0 220.5 45 t174 128.5t113.5 206.5q20 61 30 125.5t10 139.5h-571q-20 0 -46 -1t-58 -4l-78 -5l3 25l3 32l-2 17l-3 21l-1 16l98 -6l84 -5h567q-14 162 -82 288t-190 201t-287 75q-71 0 -139 -21q-31 -9 -61.5 -22t-56.5 -28q-51 -29 -87 -60t-47 -46l-14 3q-17 91 -43 157z" />
<glyph unicode="&#x42d;" horiz-adv-x="1366" d="M76 1331q66 29 140 51q33 9 72 17.5t81 14.5q80 11 147 11q218 0 393.5 -84.5t277 -249.5t101.5 -389q0 -165 -48.5 -301t-142 -232.5t-229 -148t-301.5 -51.5q-61 0 -121.5 7t-120.5 22q-120 27 -210 88l-11 129q70 -57 181.5 -111.5t253.5 -54.5q119 0 220.5 45 t174 128.5t113.5 206.5q20 61 30 125.5t10 139.5h-571q-20 0 -46 -1t-58 -4l-78 -5l3 25l3 32l-2 17l-3 21l-1 16l98 -6l84 -5h567q-14 162 -82 288t-190 201t-287 75q-71 0 -139 -21q-31 -9 -61.5 -22t-56.5 -28q-51 -29 -87 -60t-47 -46l-14 3q-17 91 -43 157z" />
<glyph unicode="&#xde;" horiz-adv-x="2163" d="M184 -6v1401q36 -6 90 -6q43 0 91 6v-588h192q18 144 83.5 257.5t165.5 194t230 123.5q65 21 132.5 32t140.5 11q148 0 288 -41.5t249.5 -127.5t174 -219.5t64.5 -311.5q0 -222 -99 -394t-278 -267t-403 -95q-167 0 -307.5 51t-240 147.5t-153.5 231.5q-27 68 -40 139.5 t-13 155.5v4h-186v-704l-40 4h-12q-7 0 -13 2h-26l-41 -2zM752 670q0 -149 41.5 -266.5t120 -200.5t181.5 -124.5t216 -41.5q146 0 257 63.5t179 165.5t103 221q16 56 25 113.5t9 108.5q0 101 -10 171t-39.5 143.5t-79.5 136.5t-116.5 106.5t-148.5 67.5t-161 24 q-133 0 -241 -49t-183 -139.5t-114 -219t-39 -280.5z" />
<glyph unicode="&#x42e;" horiz-adv-x="2163" d="M184 -6v1401q36 -6 90 -6q43 0 91 6v-588h192q18 144 83.5 257.5t165.5 194t230 123.5q65 21 132.5 32t140.5 11q148 0 288 -41.5t249.5 -127.5t174 -219.5t64.5 -311.5q0 -222 -99 -394t-278 -267t-403 -95q-167 0 -307.5 51t-240 147.5t-153.5 231.5q-27 68 -40 139.5 t-13 155.5v4h-186v-704l-40 4h-12q-7 0 -13 2h-26l-41 -2zM752 670q0 -149 41.5 -266.5t120 -200.5t181.5 -124.5t216 -41.5q146 0 257 63.5t179 165.5t103 221q16 56 25 113.5t9 108.5q0 101 -10 171t-39.5 143.5t-79.5 136.5t-116.5 106.5t-148.5 67.5t-161 24 q-133 0 -241 -49t-183 -139.5t-114 -219t-39 -280.5z" />
<glyph unicode="&#xdf;" horiz-adv-x="1251" d="M39 -6l39 51l98 115l422 534q-176 33 -298 129.5t-122 259.5q0 157 110 234.5t345 77.5h434v-1401l-35 3q-17 0 -25 2l-30 1l-29 -1l-25 -2l-36 -3v684h-78l-164 -193l-242 -313l-129 -178l-50 4h-16q-9 0 -17 2h-33l-39 -1l-32 -2zM360 1059q0 -114 71.5 -190 t191.5 -103q66 -12 168 -12l53 1l43 1v563l-82 2l-92 2q-94 0 -127 -6q-226 -36 -226 -258z" />
<glyph unicode="&#x42f;" horiz-adv-x="1251" d="M39 -6l39 51l98 115l422 534q-176 33 -298 129.5t-122 259.5q0 157 110 234.5t345 77.5h434v-1401l-35 3q-17 0 -25 2l-30 1l-29 -1l-25 -2l-36 -3v684h-78l-164 -193l-242 -313l-129 -178l-50 4h-16q-9 0 -17 2h-33l-39 -1l-32 -2zM360 1059q0 -114 71.5 -190 t191.5 -103q66 -12 168 -12l53 1l43 1v563l-82 2l-92 2q-94 0 -127 -6q-226 -36 -226 -258z" />
<glyph unicode="&#xe0;" horiz-adv-x="1024" d="M92 227q0 109 51 168t124 82t206 45q97 15 137.5 27.5t60 37t19.5 72.5q0 114 -62.5 177t-176.5 63q-66 0 -119 -24t-83.5 -56t-41.5 -61h-23v114q166 113 330 113q162 0 247 -86.5t85 -257.5v-475v-32q0 -16 2.5 -30.5t14.5 -27.5t38 -13q21 0 60 9v-45q-35 -15 -65 -21 t-62 -6q-29 0 -54.5 8t-45.5 22q-37 28 -46 95l-18 -19q-129 -129 -303 -129q-112 0 -193.5 69.5t-81.5 180.5zM262 256q0 -94 52 -142t149 -48q38 0 85 22.5t79 54.5l23 21l21 22q9 11 11 19v299l-72 -17q-47 -8 -83 -15t-52 -11q-46 -9 -95 -32q-51 -21 -84.5 -64 t-33.5 -109z" />
<glyph unicode="&#x430;" horiz-adv-x="1024" d="M92 227q0 109 51 168t124 82t206 45q97 15 137.5 27.5t60 37t19.5 72.5q0 114 -62.5 177t-176.5 63q-66 0 -119 -24t-83.5 -56t-41.5 -61h-23v114q166 113 330 113q162 0 247 -86.5t85 -257.5v-475v-32q0 -16 2.5 -30.5t14.5 -27.5t38 -13q21 0 60 9v-45q-35 -15 -65 -21 t-62 -6q-29 0 -54.5 8t-45.5 22q-37 28 -46 95l-18 -19q-129 -129 -303 -129q-112 0 -193.5 69.5t-81.5 180.5zM262 256q0 -94 52 -142t149 -48q38 0 85 22.5t79 54.5l23 21l21 22q9 11 11 19v299l-72 -17q-47 -8 -83 -15t-52 -11q-46 -9 -95 -32q-51 -21 -84.5 -64 t-33.5 -109z" />
<glyph unicode="&#xe1;" d="M72 492q0 292 42 465t144.5 269t282 132.5t467.5 36.5l-3 -18l-2 -21q0 -16 -2 -25q0 -25 7 -59q-70 10 -146.5 15t-167.5 5q-145 0 -250.5 -53t-161 -149t-55.5 -220q69 56 164 85.5t201 29.5q140 0 247.5 -60.5t167.5 -174.5t60 -265q0 -97 -33 -189t-98.5 -164.5 t-163.5 -113.5t-217 -41q-132 0 -243.5 61.5t-175.5 179.5t-64 274zM252 461q0 -113 32.5 -205.5t104.5 -153.5t182 -61q108 0 179.5 74t104 181t32.5 200q0 76 -15 150.5t-49.5 135.5t-92.5 100.5t-140 39.5q-122 0 -197.5 -66.5t-108 -172.5t-32.5 -222z" />
<glyph unicode="&#x431;" d="M72 492q0 292 42 465t144.5 269t282 132.5t467.5 36.5l-3 -18l-2 -21q0 -16 -2 -25q0 -25 7 -59q-70 10 -146.5 15t-167.5 5q-145 0 -250.5 -53t-161 -149t-55.5 -220q69 56 164 85.5t201 29.5q140 0 247.5 -60.5t167.5 -174.5t60 -265q0 -97 -33 -189t-98.5 -164.5 t-163.5 -113.5t-217 -41q-132 0 -243.5 61.5t-175.5 179.5t-64 274zM252 461q0 -113 32.5 -205.5t104.5 -153.5t182 -61q108 0 179.5 74t104 181t32.5 200q0 76 -15 150.5t-49.5 135.5t-92.5 100.5t-140 39.5q-122 0 -197.5 -66.5t-108 -172.5t-32.5 -222z" />
<glyph unicode="&#xe2;" horiz-adv-x="1024" d="M0 0h158v967h393q98 0 175.5 -23.5t121 -76t43.5 -138.5q0 -85 -58 -138.5t-159 -68.5q129 -21 202.5 -74.5t73.5 -179.5q0 -86 -48 -146t-131 -93q-40 -15 -84 -23t-91 -8zM322 80h213q67 0 117.5 21.5t81 64.5t30.5 102q0 73 -26.5 119.5t-77 67t-125.5 20.5h-213v-395 zM322 551h192q197 0 197 174q0 84 -51.5 123t-137.5 39h-200v-336z" />
<glyph unicode="&#x432;" horiz-adv-x="1024" d="M0 0h158v967h393q98 0 175.5 -23.5t121 -76t43.5 -138.5q0 -85 -58 -138.5t-159 -68.5q129 -21 202.5 -74.5t73.5 -179.5q0 -86 -48 -146t-131 -93q-40 -15 -84 -23t-91 -8zM322 80h213q67 0 117.5 21.5t81 64.5t30.5 102q0 73 -26.5 119.5t-77 67t-125.5 20.5h-213v-395 zM322 551h192q197 0 197 174q0 84 -51.5 123t-137.5 39h-200v-336z" />
<glyph unicode="&#xe3;" horiz-adv-x="834" d="M158 -6v973h651l-4 -56l4 -55q-129 23 -487 23v-885l-33 3q-16 0 -23 2l-26 1h-25l-22 -2z" />
<glyph unicode="&#x433;" horiz-adv-x="834" d="M158 -6v973h651l-4 -56l4 -55q-129 23 -487 23v-885l-33 3q-16 0 -23 2l-26 1h-25l-22 -2z" />
<glyph unicode="&#xe4;" horiz-adv-x="1024" d="M6 -59q6 18 6 75q0 44 -6 76h84l129 283q61 139 133 313q32 79 59 149t50 134l16 -1l13 -1l17 -3l15 -1l20 1l25 3l19 2q131 -363 356 -879h76l-4 -76q0 -59 4 -75h-14q-35 27 -83 41q-22 6 -50 10.5t-52 4.5q-44 0 -81.5 1t-71.5 2h-308q-144 0 -214.5 -9.5 t-120.5 -49.5h-17zM211 92h563q-79 247 -274 688h-15l-125 -302q-41 -100 -79 -198q-33 -87 -70 -188z" />
<glyph unicode="&#x434;" horiz-adv-x="1024" d="M6 -59q6 18 6 75q0 44 -6 76h84l129 283q61 139 133 313q32 79 59 149t50 134l16 -1l13 -1l17 -3l15 -1l20 1l25 3l19 2q131 -363 356 -879h76l-4 -76q0 -59 4 -75h-14q-35 27 -83 41q-22 6 -50 10.5t-52 4.5q-44 0 -81.5 1t-71.5 2h-308q-144 0 -214.5 -9.5 t-120.5 -49.5h-17zM211 92h563q-79 247 -274 688h-15l-125 -302q-41 -100 -79 -198q-33 -87 -70 -188z" />
<glyph unicode="&#xe5;" horiz-adv-x="1024" d="M72 481q0 144 54 258t160.5 180t254.5 66q85 0 159 -28t132 -83.5t92 -143.5t34 -202l-1 -24l-1 -21q-69 0 -207 3t-208 3h-289l-2 -43q0 -80 23 -148.5t68.5 -121t114.5 -83t150 -30.5q157 0 303 142l-2 -107q-79 -56 -173 -89q-46 -16 -89 -24t-90 -8q-140 0 -250.5 60 t-171.5 175.5t-61 268.5zM252 565h545q0 77 -15.5 141.5t-45.5 115.5q-58 100 -195 100q-89 0 -152 -50t-98 -133q-19 -47 -29 -88.5t-10 -85.5z" />
<glyph unicode="&#x435;" horiz-adv-x="1024" d="M72 481q0 144 54 258t160.5 180t254.5 66q85 0 159 -28t132 -83.5t92 -143.5t34 -202l-1 -24l-1 -21q-69 0 -207 3t-208 3h-289l-2 -43q0 -80 23 -148.5t68.5 -121t114.5 -83t150 -30.5q157 0 303 142l-2 -107q-79 -56 -173 -89q-46 -16 -89 -24t-90 -8q-140 0 -250.5 60 t-171.5 175.5t-61 268.5zM252 565h545q0 77 -15.5 141.5t-45.5 115.5q-58 100 -195 100q-89 0 -152 -50t-98 -133q-19 -47 -29 -88.5t-10 -85.5z" />
<glyph unicode="&#xe6;" horiz-adv-x="1479" d="M31 4l112 129l119 139l141 164l109 127l-142 130l-131 114l-84 70l-94 81v15l49 -4l31 -2q41 0 82 6l160 -176l127 -129l50 -50l52 -50q24 -21 35 -21q10 8 10 67v359q39 -6 82 -6q38 0 82 6v-359q0 -58 10 -67q17 0 138 121l127 129l159 176q36 -6 82 -6q36 0 80 6v-15 l-53 -46l-114 -96q-86 -73 -169 -148l-114 -105l89 -104l132 -154l138 -160l122 -141v-10q-19 0 -30 2q-19 0 -27 2q-14 0 -20 2h-23h-27l-22 -2q-17 0 -27 -2q-18 0 -27 -2l-90 112l-97 115l-99 114l-105 120l-31 32q-4 -7 -4 -12l1 -24l1 -39v-418l-32 3q-16 0 -23 2 l-27 1l-25 -1l-23 -2l-34 -3v418q0 31 -0.5 47.5t-1.5 27.5l-30 -32l-148 -169l-132 -153q-65 -77 -112 -139q-16 0 -26 2q-18 0 -27 2q-15 0 -21 2h-28h-24l-20 -2q-17 0 -27 -2q-18 0 -29 -2v10z" />
<glyph unicode="&#x436;" horiz-adv-x="1479" d="M31 4l112 129l119 139l141 164l109 127l-142 130l-131 114l-84 70l-94 81v15l49 -4l31 -2q41 0 82 6l160 -176l127 -129l50 -50l52 -50q24 -21 35 -21q10 8 10 67v359q39 -6 82 -6q38 0 82 6v-359q0 -58 10 -67q17 0 138 121l127 129l159 176q36 -6 82 -6q36 0 80 6v-15 l-53 -46l-114 -96q-86 -73 -169 -148l-114 -105l89 -104l132 -154l138 -160l122 -141v-10q-19 0 -30 2q-19 0 -27 2q-14 0 -20 2h-23h-27l-22 -2q-17 0 -27 -2q-18 0 -27 -2l-90 112l-97 115l-99 114l-105 120l-31 32q-4 -7 -4 -12l1 -24l1 -39v-418l-32 3q-16 0 -23 2 l-27 1l-25 -1l-23 -2l-34 -3v418q0 31 -0.5 47.5t-1.5 27.5l-30 -32l-148 -169l-132 -153q-65 -77 -112 -139q-16 0 -26 2q-18 0 -27 2q-15 0 -21 2h-28h-24l-20 -2q-17 0 -27 -2q-18 0 -29 -2v10z" />
<glyph unicode="&#xe7;" horiz-adv-x="909" d="M86 43q36 111 43 150h16q81 -152 263 -152q65 0 116.5 27.5t81 76.5t29.5 111q0 102 -63.5 159.5t-168.5 57.5l-141 -4v88l141 -4q77 0 126 52t49 130q0 54 -23.5 96.5t-66.5 66.5t-95 24q-156 0 -211 -136h-18q-17 71 -49 146q89 53 297 53q68 0 131 -14.5t110.5 -45.5 t76 -79t28.5 -111q0 -84 -57.5 -142t-149.5 -73q116 -14 192 -75.5t76 -180.5q0 -136 -123.5 -211.5t-287.5 -75.5q-209 0 -322 66z" />
<glyph unicode="&#x437;" horiz-adv-x="909" d="M86 43q36 111 43 150h16q81 -152 263 -152q65 0 116.5 27.5t81 76.5t29.5 111q0 102 -63.5 159.5t-168.5 57.5l-141 -4v88l141 -4q77 0 126 52t49 130q0 54 -23.5 96.5t-66.5 66.5t-95 24q-156 0 -211 -136h-18q-17 71 -49 146q89 53 297 53q68 0 131 -14.5t110.5 -45.5 t76 -79t28.5 -111q0 -84 -57.5 -142t-149.5 -73q116 -14 192 -75.5t76 -180.5q0 -136 -123.5 -211.5t-287.5 -75.5q-209 0 -322 66z" />
<glyph unicode="&#xe8;" d="M158 -6v979q24 -6 82 -6q52 0 82 6v-713l139 156l154 185q84 104 156 198q31 40 68 91q19 26 60 83h82v-979l-45 4l-37 2l-28 -1l-23 -2l-31 -3v713l-131 -150l-164 -195l-159 -199q-32 -42 -61.5 -82t-61.5 -87h-82z" />
<glyph unicode="&#x438;" d="M158 -6v979q24 -6 82 -6q52 0 82 6v-713l139 156l154 185q84 104 156 198q31 40 68 91q19 26 60 83h82v-979l-45 4l-37 2l-28 -1l-23 -2l-31 -3v713l-131 -150l-164 -195l-159 -199q-32 -42 -61.5 -82t-61.5 -87h-82z" />
<glyph unicode="&#xe9;" d="M158 -6v979q39 -6 82 -6q37 0 82 6v-713l139 156l154 185q84 104 156 198q31 40 68 91q19 26 60 83h82v-979l-45 4l-37 2q-40 0 -82 -6v713l-131 -150l-164 -195l-159 -199q-32 -42 -61.5 -82t-61.5 -87h-82zM223 1159l41 70q132 -82 303 -82q174 0 305 82l41 -68 q-162 -96 -346 -96q-90 0 -176 24.5t-168 69.5z" />
<glyph unicode="&#x439;" d="M158 -6v979q39 -6 82 -6q37 0 82 6v-713l139 156l154 185q84 104 156 198q31 40 68 91q19 26 60 83h82v-979l-45 4l-37 2q-40 0 -82 -6v713l-131 -150l-164 -195l-159 -199q-32 -42 -61.5 -82t-61.5 -87h-82zM223 1159l41 70q132 -82 303 -82q174 0 305 82l41 -68 q-162 -96 -346 -96q-90 0 -176 24.5t-168 69.5z" />
<glyph unicode="&#xea;" horiz-adv-x="1024" d="M162 -6v979l47 -4l35 -2l33 2l49 4v-359q0 -44 2 -53.5t8 -13.5q57 0 178 121l127 129l160 176l47 -4l35 -2l31 2l49 4v-15l-57 -49l-111 -93q-86 -73 -169 -148l-114 -105l89 -104l132 -154l138 -160l122 -141v-10l-42 3q-18 0 -26 2l-32 1h-31l-28 -2l-43 -4 q-48 64 -151 183l-241 278q-29 32 -47 32q-26 0 -26 -75v-418l-34 3q-15 0 -22 2l-26 1h-25l-22 -2z" />
<glyph unicode="&#x43a;" horiz-adv-x="1024" d="M162 -6v979l47 -4l35 -2l33 2l49 4v-359q0 -44 2 -53.5t8 -13.5q57 0 178 121l127 129l160 176l47 -4l35 -2l31 2l49 4v-15l-57 -49l-111 -93q-86 -73 -169 -148l-114 -105l89 -104l132 -154l138 -160l122 -141v-10l-42 3q-18 0 -26 2l-32 1h-31l-28 -2l-43 -4 q-48 64 -151 183l-241 278q-29 32 -47 32q-26 0 -26 -75v-418l-34 3q-15 0 -22 2l-26 1h-25l-22 -2z" />
<glyph unicode="&#xeb;" horiz-adv-x="985" d="M23 -8q290 609 417 979l37 -4l25 -2q17 0 27 2l36 4q67 -178 185 -468t217 -511l-40 4h-12q-7 0 -13 2h-28l-28 -1l-24 -2l-38 -3q-31 103 -76 223q-22 62 -47.5 127.5t-54.5 135.5q-56 141 -127 302q-25 -25 -86 -168l-76 -178l-163 -442l-25 3q-13 0 -19 2l-22 1 l-20 -1l-18 -2z" />
<glyph unicode="&#x43b;" horiz-adv-x="985" d="M23 -8q290 609 417 979l37 -4l25 -2q17 0 27 2l36 4q67 -178 185 -468t217 -511l-40 4h-12q-7 0 -13 2h-28l-28 -1l-24 -2l-38 -3q-31 103 -76 223q-22 62 -47.5 127.5t-54.5 135.5q-56 141 -127 302q-25 -25 -86 -168l-76 -178l-163 -442l-25 3q-13 0 -19 2l-22 1 l-20 -1l-18 -2z" />
<glyph unicode="&#xec;" horiz-adv-x="1366" d="M70 -6q15 66 35.5 188t33.5 222l33 262l37 305h55q32 -65 64.5 -128.5t72.5 -136.5q77 -142 157 -281q42 -72 72 -121q36 -58 62 -95q176 302 408 762h55l26 -230l29 -230l39 -322l23 -195l-39 4h-12q-7 0 -13 2h-26l-29 -1l-25 -2l-36 -3q0 39 -5 100t-5 83 q0 36 -2.5 67t-8.5 88q0 38 -5 82q-8 57 -11 86q-8 94 -19 162q-185 -302 -368 -668h-47q-29 61 -82 160l-99 182l-99 173q-54 93 -93 153l-22 -160l-23 -186l-19 -187l-6 -135l-20 4q-9 0 -12 2h-19l-19 -1l-14 -2z" />
<glyph unicode="&#x43c;" horiz-adv-x="1366" d="M70 -6q15 66 35.5 188t33.5 222l33 262l37 305h55q32 -65 64.5 -128.5t72.5 -136.5q77 -142 157 -281q42 -72 72 -121q36 -58 62 -95q176 302 408 762h55l26 -230l29 -230l39 -322l23 -195l-39 4h-12q-7 0 -13 2h-26l-29 -1l-25 -2l-36 -3q0 39 -5 100t-5 83 q0 36 -2.5 67t-8.5 88q0 38 -5 82q-8 57 -11 86q-8 94 -19 162q-185 -302 -368 -668h-47q-29 61 -82 160l-99 182l-99 173q-54 93 -93 153l-22 -160l-23 -186l-19 -187l-6 -135l-20 4q-9 0 -12 2h-19l-19 -1l-14 -2z" />
<glyph unicode="&#xed;" d="M158 -6v979q36 -6 82 -6q40 0 82 6v-412l125 -6l122 -4l122 4l126 6v412l46 -4l36 -2q37 0 82 6v-979l-45 4l-37 2q-40 0 -82 -6v475l-101 4l-147 2q-30 0 -79 -1t-68 -1l-100 -4v-475l-46 4l-36 2h-25l-22 -2z" />
<glyph unicode="&#x43d;" d="M158 -6v979q36 -6 82 -6q40 0 82 6v-412l125 -6l122 -4l122 4l126 6v412l46 -4l36 -2q37 0 82 6v-979l-45 4l-37 2q-40 0 -82 -6v475l-101 4l-147 2q-30 0 -79 -1t-68 -1l-100 -4v-475l-46 4l-36 2h-25l-22 -2z" />
<glyph unicode="&#xee;" d="M72 492q0 110 38.5 199t110.5 156t165.5 102.5t205.5 35.5q140 0 247.5 -60.5t167.5 -174.5t60 -265q0 -97 -33 -189t-98.5 -164.5t-163.5 -113.5t-217 -41q-132 0 -243.5 61.5t-175.5 179.5t-64 274zM252 461q0 -113 32.5 -205.5t104.5 -153.5t182 -61q108 0 179.5 74 t104 181t32.5 200q0 76 -15 150.5t-49.5 135.5t-92.5 100.5t-140 39.5q-122 0 -197.5 -66.5t-108 -172.5t-32.5 -222z" />
<glyph unicode="&#x43e;" d="M72 492q0 110 38.5 199t110.5 156t165.5 102.5t205.5 35.5q140 0 247.5 -60.5t167.5 -174.5t60 -265q0 -97 -33 -189t-98.5 -164.5t-163.5 -113.5t-217 -41q-132 0 -243.5 61.5t-175.5 179.5t-64 274zM252 461q0 -113 32.5 -205.5t104.5 -153.5t182 -61q108 0 179.5 74 t104 181t32.5 200q0 76 -15 150.5t-49.5 135.5t-92.5 100.5t-140 39.5q-122 0 -197.5 -66.5t-108 -172.5t-32.5 -222z" />
<glyph unicode="&#xef;" d="M158 -6v977l188 -3l225 -1l223 1l187 3v-977l-45 4l-37 2l-28 -1l-23 -2l-31 -3v883h-495v-883q-42 6 -82 6h-25l-24 -2z" />
<glyph unicode="&#x43f;" d="M158 -6v977l188 -3l225 -1l223 1l187 3v-977l-45 4l-37 2l-28 -1l-23 -2l-31 -3v883h-495v-883q-42 6 -82 6h-25l-24 -2z" />
<glyph unicode="&#xf0;" d="M135 -530v1503l47 -4l35 -2l33 2l49 4v-195h4q46 89 117 150t229 61q49 0 91 -9t82 -29q76 -37 131 -104.5t81.5 -152t26.5 -178.5q0 -250 -122 -394.5t-321 -144.5q-211 0 -315 197h-4v-704l-34 3q-15 0 -22 2l-26 1l-28 -1l-23 -2zM299 457q0 -174 75.5 -284 t225.5 -110q99 0 161 59t91 159.5t29 226.5q0 171 -67 283t-216 112q-83 0 -141.5 -40.5t-92 -106.5t-49.5 -142.5t-16 -156.5z" />
<glyph unicode="&#x440;" d="M135 -530v1503l47 -4l35 -2l33 2l49 4v-195h4q46 89 117 150t229 61q49 0 91 -9t82 -29q76 -37 131 -104.5t81.5 -152t26.5 -178.5q0 -250 -122 -394.5t-321 -144.5q-211 0 -315 197h-4v-704l-34 3q-15 0 -22 2l-26 1l-28 -1l-23 -2zM299 457q0 -174 75.5 -284 t225.5 -110q99 0 161 59t91 159.5t29 226.5q0 171 -67 283t-216 112q-83 0 -141.5 -40.5t-92 -106.5t-49.5 -142.5t-16 -156.5z" />
<glyph unicode="&#xf1;" horiz-adv-x="985" d="M72 485q0 154 67 267t187.5 173t275.5 60q186 0 324 -84l-47 -135h-17q-38 52 -55 68q-30 36 -90 58.5t-113 22.5q-165 0 -260 -123q-46 -62 -69 -135t-23 -161q0 -131 46.5 -233t132.5 -159t194 -57q80 0 143.5 32.5t138.5 100.5l13 -6l-11 -94q-139 -103 -313 -103 q-165 0 -283 65.5t-179.5 181.5t-61.5 261z" />
<glyph unicode="&#x441;" horiz-adv-x="985" d="M72 485q0 154 67 267t187.5 173t275.5 60q186 0 324 -84l-47 -135h-17q-38 52 -55 68q-30 36 -90 58.5t-113 22.5q-165 0 -260 -123q-46 -62 -69 -135t-23 -161q0 -131 46.5 -233t132.5 -159t194 -57q80 0 143.5 32.5t138.5 100.5l13 -6l-11 -94q-139 -103 -313 -103 q-165 0 -283 65.5t-179.5 181.5t-61.5 261z" />
<glyph unicode="&#xf2;" horiz-adv-x="909" d="M20 856l7 55l-7 56h869l-4 -56l4 -55q-117 18 -352 18v-880l-33 3q-16 0 -23 2l-26 1h-25l-22 -2l-35 -4v880q-225 0 -353 -18z" />
<glyph unicode="&#x442;" horiz-adv-x="909" d="M20 856l7 55l-7 56h869l-4 -56l4 -55q-117 18 -352 18v-880l-33 3q-16 0 -23 2l-26 1h-25l-22 -2l-35 -4v880q-225 0 -353 -18z" />
<glyph unicode="&#xf3;" horiz-adv-x="1024" d="M53 973l57 -4l42 -2l38 2l58 4q49 -155 129.5 -356.5t175.5 -403.5q67 137 150 346q39 97 81 209q37 98 76 205q33 -6 68 -6q30 0 65 6l-175 -387l-184 -406q-49 -109 -84 -190q-44 -101 -78 -181q-29 -67 -72 -172q-26 -63 -68 -167l-29 3q-13 0 -19 2l-22 1l-24 -1 l-20 -2l-25 -3l274 532z" />
<glyph unicode="&#x443;" horiz-adv-x="1024" d="M53 973l57 -4l42 -2l38 2l58 4q49 -155 129.5 -356.5t175.5 -403.5q67 137 150 346q39 97 81 209q37 98 76 205q33 -6 68 -6q30 0 65 6l-175 -387l-184 -406q-49 -109 -84 -190q-44 -101 -78 -181q-29 -67 -72 -172q-26 -63 -68 -167l-29 3q-13 0 -19 2l-22 1l-24 -1 l-20 -2l-25 -3l274 532z" />
<glyph unicode="&#xf4;" horiz-adv-x="1593" d="M76 516q0 124 46 231t135.5 172.5t205.5 65.5q95 0 157 -28.5t95 -75.5v508q22 -3 42 -5t40 -2q46 0 82 7v-508q74 104 251 104q88 0 160.5 -36.5t123.5 -102.5t77.5 -152.5t26.5 -177.5q0 -168 -49.5 -288.5t-144 -185.5t-224.5 -65q-143 0 -221 109v-616q-45 6 -82 6 q-35 0 -82 -6v616q-77 -109 -221 -109q-131 0 -224 63t-143.5 186.5t-50.5 289.5zM256 502q0 -126 24 -224.5t82 -156.5t150 -58q62 0 117.5 31t85.5 82l5 138l1 163l-1 163q0 22 -2.5 71.5t-2.5 66.5q-10 18 -21.5 33t-28.5 30q-29 26 -67 42t-84 16q-87 0 -145 -55 t-85.5 -145.5t-27.5 -196.5zM872 477q0 -75 3.5 -180t3.5 -121q30 -50 85 -81.5t117 -31.5q137 0 196.5 120.5t59.5 318.5q0 80 -15 150t-45.5 125.5t-79 88.5t-118.5 33q-64 0 -115.5 -32.5t-84.5 -88.5q0 -45 -3.5 -150t-3.5 -151z" />
<glyph unicode="&#x444;" horiz-adv-x="1593" d="M76 516q0 124 46 231t135.5 172.5t205.5 65.5q95 0 157 -28.5t95 -75.5v508q22 -3 42 -5t40 -2q46 0 82 7v-508q74 104 251 104q88 0 160.5 -36.5t123.5 -102.5t77.5 -152.5t26.5 -177.5q0 -168 -49.5 -288.5t-144 -185.5t-224.5 -65q-143 0 -221 109v-616q-45 6 -82 6 q-35 0 -82 -6v616q-77 -109 -221 -109q-131 0 -224 63t-143.5 186.5t-50.5 289.5zM256 502q0 -126 24 -224.5t82 -156.5t150 -58q62 0 117.5 31t85.5 82l5 138l1 163l-1 163q0 22 -2.5 71.5t-2.5 66.5q-10 18 -21.5 33t-28.5 30q-29 26 -67 42t-84 16q-87 0 -145 -55 t-85.5 -145.5t-27.5 -196.5zM872 477q0 -75 3.5 -180t3.5 -121q30 -50 85 -81.5t117 -31.5q137 0 196.5 120.5t59.5 318.5q0 80 -15 150t-45.5 125.5t-79 88.5t-118.5 33q-64 0 -115.5 -32.5t-84.5 -88.5q0 -45 -3.5 -150t-3.5 -151z" />
<glyph unicode="&#xf5;" horiz-adv-x="1024" d="M59 973l60 -4l45 -2l43 2l61 4q46 -79 129 -198t135 -183l115 147l172 234l40 -4l30 -2l29 2l43 4l-124 -136l-123 -141q-57 -67 -134 -164l383 -518v-20l-40 3q-19 0 -27 2l-30 1l-44 -2l-52 -4q-27 45 -59.5 95t-73.5 110q-75 111 -156 217l-161 -221q-35 -48 -72 -104 q-32 -47 -62 -97l-24 3q-11 0 -17 2l-20 1l-22 -1l-17 -2l-23 -3v20l221 275l148 188z" />
<glyph unicode="&#x445;" horiz-adv-x="1024" d="M59 973l60 -4l45 -2l43 2l61 4q46 -79 129 -198t135 -183l115 147l172 234l40 -4l30 -2l29 2l43 4l-124 -136l-123 -141q-57 -67 -134 -164l383 -518v-20l-40 3q-19 0 -27 2l-30 1l-44 -2l-52 -4q-27 45 -59.5 95t-73.5 110q-75 111 -156 217l-161 -221q-35 -48 -72 -104 q-32 -47 -62 -97l-24 3q-11 0 -17 2l-20 1l-22 -1l-17 -2l-23 -3v20l221 275l148 188z" />
<glyph unicode="&#xf6;" d="M158 0v973l82 -6q37 0 82 6v-881l110 -3l133 -1l138 1l114 3v881q33 -6 82 -6l33 2l49 4v-881h104l-4 -76v-32q0 -13 4 -43h-14q-49 39 -122 49q-33 4 -91 7t-125 3h-575z" />
<glyph unicode="&#x446;" d="M158 0v973l82 -6q37 0 82 6v-881l110 -3l133 -1l138 1l114 3v881q33 -6 82 -6l33 2l49 4v-881h104l-4 -76v-32q0 -13 4 -43h-14q-49 39 -122 49q-33 4 -91 7t-125 3h-575z" />
<glyph unicode="&#xf7;" horiz-adv-x="1063" d="M102 596v377l47 -4l35 -2h12q6 0 22 2l48 4v-371q0 -137 205 -137q63 0 132 27t126 69v412l46 -4l36 -2q37 0 82 6v-979l-36 4q-18 0 -23 2h-23q-40 0 -82 -6v475q-71 -45 -157.5 -71.5t-161.5 -26.5q-63 0 -133 20.5t-122.5 70.5t-52.5 134z" />
<glyph unicode="&#x447;" horiz-adv-x="1063" d="M102 596v377l47 -4l35 -2h12q6 0 22 2l48 4v-371q0 -137 205 -137q63 0 132 27t126 69v412l46 -4l36 -2q37 0 82 6v-979l-36 4q-18 0 -23 2h-23q-40 0 -82 -6v475q-71 -45 -157.5 -71.5t-161.5 -26.5q-63 0 -133 20.5t-122.5 70.5t-52.5 134z" />
<glyph unicode="&#xf8;" horiz-adv-x="1479" d="M158 0v973q24 -6 82 -6q52 0 82 6v-881l71 -3l86 -1l98 1l80 3v881q23 -6 82 -6q50 0 82 6v-881l77 -3l93 -1l91 1l75 3v881q23 -6 82 -6q56 0 82 6v-973h-1163z" />
<glyph unicode="&#x448;" horiz-adv-x="1479" d="M158 0v973q24 -6 82 -6q52 0 82 6v-881l71 -3l86 -1l98 1l80 3v881q23 -6 82 -6q50 0 82 6v-881l77 -3l93 -1l91 1l75 3v881q23 -6 82 -6q56 0 82 6v-973h-1163z" />
<glyph unicode="&#xf9;" horiz-adv-x="1479" d="M158 0v973l82 -6q40 0 82 6v-881l68 -1l97 -1l99 1l71 1v881q27 -6 82 -6q38 0 82 6v-881l71 -1l99 -1l97 1l69 1v881q33 -6 82 -6l33 2l49 4v-881h104l-4 -76v-32q0 -13 4 -43h-14q-49 39 -122 49q-33 4 -91 7t-125 3h-915z" />
<glyph unicode="&#x449;" horiz-adv-x="1479" d="M158 0v973l82 -6q40 0 82 6v-881l68 -1l97 -1l99 1l71 1v881q27 -6 82 -6q38 0 82 6v-881l71 -1l99 -1l97 1l69 1v881q33 -6 82 -6l33 2l49 4v-881h104l-4 -76v-32q0 -13 4 -43h-14q-49 39 -122 49q-33 4 -91 7t-125 3h-915z" />
<glyph unicode="&#xfa;" horiz-adv-x="948" d="M-16 860q6 27 6 53q0 35 -6 58l167 -4h173v-402h241q150 0 243 -71.5t93 -210.5q0 -78 -51.5 -142.5t-135.5 -102.5t-167 -38h-387v877h-63q-26 0 -42 -2q-10 0 -27 -4t-44 -11zM324 86l96 -4h53q61 0 119 23.5t95.5 69.5t37.5 108q0 103 -65 151.5t-160 48.5h-176v-397z " />
<glyph unicode="&#x44a;" horiz-adv-x="948" d="M-16 860q6 27 6 53q0 35 -6 58l167 -4h173v-402h241q150 0 243 -71.5t93 -210.5q0 -78 -51.5 -142.5t-135.5 -102.5t-167 -38h-387v877h-63q-26 0 -42 -2q-10 0 -27 -4t-44 -11zM324 86l96 -4h53q61 0 119 23.5t95.5 69.5t37.5 108q0 103 -65 151.5t-160 48.5h-176v-397z " />
<glyph unicode="&#xfb;" horiz-adv-x="1327" d="M0 0h158v973q33 -6 84 -6q44 0 80 6v-408h241q94 0 170.5 -31t121 -95t44.5 -156q0 -78 -51.5 -142.5t-135.5 -102.5t-167 -38h-545zM322 86l78 -4h71q61 0 119 23.5t95.5 69.5t37.5 108q0 103 -65 151.5t-160 48.5h-176v-397zM1006 -6v979q36 -6 81 -6q41 0 82 6v-979 l-32 3q-16 0 -23 2l-27 1l-28 -1l-22 -2z" />
<glyph unicode="&#x44b;" horiz-adv-x="1327" d="M0 0h158v973q33 -6 84 -6q44 0 80 6v-408h241q94 0 170.5 -31t121 -95t44.5 -156q0 -78 -51.5 -142.5t-135.5 -102.5t-167 -38h-545zM322 86l78 -4h71q61 0 119 23.5t95.5 69.5t37.5 108q0 103 -65 151.5t-160 48.5h-176v-397zM1006 -6v979q36 -6 81 -6q41 0 82 6v-979 l-32 3q-16 0 -23 2l-27 1l-28 -1l-22 -2z" />
<glyph unicode="&#xfc;" horiz-adv-x="948" d="M0 0h158v973q30 -6 84 -6q50 0 80 6v-408h241q150 0 243 -71.5t93 -210.5q0 -78 -51.5 -142.5t-135.5 -102.5t-167 -38h-545zM322 86l94 -4h55q62 0 121 24t95 69.5t36 107.5q0 103 -65 151.5t-160 48.5h-176v-397z" />
<glyph unicode="&#x44c;" horiz-adv-x="948" d="M0 0h158v973q30 -6 84 -6q50 0 80 6v-408h241q150 0 243 -71.5t93 -210.5q0 -78 -51.5 -142.5t-135.5 -102.5t-167 -38h-545zM322 86l94 -4h55q62 0 121 24t95 69.5t36 107.5q0 103 -65 151.5t-160 48.5h-176v-397z" />
<glyph unicode="&#xfd;" horiz-adv-x="985" d="M66 901q135 84 323 84q152 0 270.5 -59t185 -172.5t66.5 -268.5q0 -146 -58 -260t-173.5 -181t-284.5 -67q-174 0 -313 103l-10 94l12 6q72 -66 136 -99.5t147 -33.5q162 0 264 118q52 60 80 138.5t28 171.5h-196q-28 0 -76 -1t-68 -1l-98 -4v92l123 -6l119 -4h194 q-8 77 -33 142t-69.5 116t-106.5 78.5t-141 27.5q-55 0 -111 -21t-92 -60q-15 -12 -55 -68h-16z" />
<glyph unicode="&#x44d;" horiz-adv-x="985" d="M66 901q135 84 323 84q152 0 270.5 -59t185 -172.5t66.5 -268.5q0 -146 -58 -260t-173.5 -181t-284.5 -67q-174 0 -313 103l-10 94l12 6q72 -66 136 -99.5t147 -33.5q162 0 264 118q52 60 80 138.5t28 171.5h-196q-28 0 -76 -1t-68 -1l-98 -4v92l123 -6l119 -4h194 q-8 77 -33 142t-69.5 116t-106.5 78.5t-141 27.5q-55 0 -111 -21t-92 -60q-15 -12 -55 -68h-16z" />
<glyph unicode="&#xfe;" horiz-adv-x="1518" d="M158 -6v979l19 -1l17 -1l23 -3l23 -1q13 0 21 2q14 0 21 2l18 1l22 1v-412h133q15 126 85.5 221t183.5 149t247 54q140 0 247.5 -60.5t167.5 -174.5t60 -265q0 -97 -33 -189t-98.5 -164.5t-163.5 -113.5t-217 -41q-101 0 -188 34.5t-152.5 99t-105.5 156.5 q-17 43 -27 94.5t-10 105.5l-129 2v-475q-15 0 -24 2q-15 0 -22 2q-11 0 -16 2h-20h-21l-18 -2q-14 0 -22 -2zM631 461q0 -113 32.5 -205.5t104.5 -153.5t182 -61q108 0 179.5 74t104 181t32.5 200q0 76 -15 150.5t-49.5 135.5t-92.5 100.5t-140 39.5q-122 0 -197.5 -66.5 t-108 -172.5t-32.5 -222z" />
<glyph unicode="&#x44e;" horiz-adv-x="1518" d="M158 -6v979l19 -1l17 -1l23 -3l23 -1q13 0 21 2q14 0 21 2l18 1l22 1v-412h133q15 126 85.5 221t183.5 149t247 54q140 0 247.5 -60.5t167.5 -174.5t60 -265q0 -97 -33 -189t-98.5 -164.5t-163.5 -113.5t-217 -41q-101 0 -188 34.5t-152.5 99t-105.5 156.5 q-17 43 -27 94.5t-10 105.5l-129 2v-475q-15 0 -24 2q-15 0 -22 2q-11 0 -16 2h-20h-21l-18 -2q-14 0 -22 -2zM631 461q0 -113 32.5 -205.5t104.5 -153.5t182 -61q108 0 179.5 74t104 181t32.5 200q0 76 -15 150.5t-49.5 135.5t-92.5 100.5t-140 39.5q-122 0 -197.5 -66.5 t-108 -172.5t-32.5 -222z" />
<glyph unicode="&#xff;" horiz-adv-x="1024" d="M76 -6l307 416q-66 11 -127.5 37.5t-111.5 93t-50 172.5q0 108 81 181t192 73h499v-973l-32 4l-48 2h-24q-12 0 -26 -2l-34 -4v407h-149l-289 -407l-38 4l-56 2h-28q-13 0 -28 -2zM262 684q0 -85 53 -131q54 -43 132 -56.5t163 -13.5h92v402l-239 2q-86 0 -143.5 -54.5 t-57.5 -148.5z" />
<glyph unicode="&#x44f;" horiz-adv-x="1024" d="M76 -6l307 416q-66 11 -127.5 37.5t-111.5 93t-50 172.5q0 108 81 181t192 73h499v-973l-32 4l-48 2h-24q-12 0 -26 -2l-34 -4v407h-149l-289 -407l-38 4l-56 2h-28q-13 0 -28 -2zM262 684q0 -85 53 -131q54 -43 132 -56.5t163 -13.5h92v402l-239 2q-86 0 -143.5 -54.5 t-57.5 -148.5z" />
<glyph unicode="&#x152;" horiz-adv-x="2730" d="M1888 0v1395h727l-4 -37l-2 -25l2 -25l4 -36q-55 11 -83 15q-49 7 -101 7l-205 4h-158v-514h318l55 2l61 5l66 4l-4 -31l-2 -23l2 -21l4 -36l-66 4l-61 4l-55 2h-318v-598q20 0 165.5 4t205.5 4q42 0 82 4.5t107 14.5l-3 -22l-3 -21l-1 -19q0 -19 2 -30l5 -31h-740z M86 694q0 164 57 300t163 234q102 94 239.5 145.5t298.5 51.5q148 0 288 -41.5t249.5 -127.5t174 -219.5t64.5 -311.5q0 -222 -99 -394t-278 -267t-403 -95q-167 0 -307.5 51t-240 147.5t-153.5 231.5q-27 68 -40 139.5t-13 155.5zM287 670q0 -149 41.5 -266.5t120 -200.5 t181.5 -124.5t216 -41.5q145 0 254.5 62.5t179 164t104.5 223t35 222.5t-10 171t-39.5 143.5t-79.5 136.5t-116.5 106.5t-148.5 67.5t-161 24q-133 0 -241 -49t-183 -139.5t-114 -219t-39 -280.5z" />
<glyph unicode="&#x153;" horiz-adv-x="2163" d="M1209 481q0 144 54 258t160.5 180t254.5 66q85 0 159 -28t132 -83.5t92 -143.5t34 -202l-1 -24l-1 -21q-69 0 -207 3t-208 3h-289l-2 -43q0 -80 23 -148.5t68.5 -121t114.5 -83t150 -30.5q157 0 303 142l-2 -107q-79 -56 -173 -89q-46 -16 -89 -24t-90 -8 q-140 0 -250.5 60t-171.5 175.5t-61 268.5zM1389 565h545q0 77 -15.5 141.5t-45.5 115.5q-58 100 -195 100q-89 0 -152 -50t-98 -133q-19 -47 -29 -88.5t-10 -85.5zM72 492q0 110 38.5 199t110.5 156t165.5 102.5t205.5 35.5q140 0 247.5 -60.5t167.5 -174.5t60 -265 q0 -97 -33 -189t-98.5 -164.5t-163.5 -113.5t-217 -41q-132 0 -243.5 61.5t-175.5 179.5t-64 274zM252 461q0 -113 32.5 -205.5t104.5 -153.5t182 -61q108 0 179.5 74t104 181t32.5 200q0 76 -15 150.5t-49.5 135.5t-92.5 100.5t-140 39.5q-122 0 -197.5 -66.5t-108 -172.5 t-32.5 -222z" />
<glyph unicode="&#x178;" horiz-adv-x="1251" d="M254 1547v1395h727l-4 -37l-2 -25l2 -25l4 -36q-55 11 -83 15q-49 7 -101 7l-205 4h-158v-514h318l55 2l61 5l66 4l-4 -31l-2 -23l2 -21l4 -36l-66 4l-61 4l-55 2h-318v-598q20 0 165.5 4t205.5 4q42 0 82 4.5t107 14.5l-3 -22l-3 -21l-1 -19q0 -19 2 -30l5 -31h-740z M348 3192q0 35 27 64.5t68 29.5q38 0 66 -28t28 -66q0 -39 -28 -67t-66 -28q-23 0 -45.5 13t-36 35.5t-13.5 46.5zM750 3192q0 35 27 64.5t67 29.5t66 -29q28 -28 28 -65q0 -24 -12 -45t-37 -37q-4 -3 -18 -8t-27 -5q-23 0 -44.5 12.5t-36.5 35.5q-3 6 -8 19t-5 28zM41 1395 l66 -4l49 -2l44 2l68 4l123 -229l151 -265q86 -151 115 -192q22 25 74 112l119 208l113 207l86 159l45 -4l34 -2l32 2l48 4q-77 -100 -145 -205l-225 -363q-63 -95 -115 -204v-629l-37 3q-17 0 -24 2l-29 1l-31 -1l-26 -2l-33 -3v590z" />
<glyph unicode="&#x2c6;" horiz-adv-x="1241" d="M104 563l449 832h135l447 -832h-144l-370 668l-373 -668h-144z" />
<glyph unicode="&#x2dc;" horiz-adv-x="569" d="M-516 204q59 107 126.5 172.5t164.5 65.5q51 0 108 -20q63 -19 139 -56l126 -53q46 -17 82 -17q63 0 122 53.5t93 122.5l72 -82q-31 -57 -72 -107t-98.5 -83t-118.5 -33q-18 0 -36 3t-43 11q-45 14 -114 42l-84 34l-58 24l-60 21q-30 8 -60 8q-73 0 -116 -45.5 t-101 -142.5z" />
<glyph unicode="&#x2000;" horiz-adv-x="1643" />
<glyph unicode="&#x2001;" horiz-adv-x="3286" />
<glyph unicode="&#x2002;" horiz-adv-x="1643" />
<glyph unicode="&#x2003;" horiz-adv-x="3286" />
<glyph unicode="&#x2004;" horiz-adv-x="1095" />
<glyph unicode="&#x2005;" horiz-adv-x="821" />
<glyph unicode="&#x2006;" horiz-adv-x="547" />
<glyph unicode="&#x2007;" horiz-adv-x="547" />
<glyph unicode="&#x2008;" horiz-adv-x="410" />
<glyph unicode="&#x2009;" horiz-adv-x="657" />
<glyph unicode="&#x200a;" horiz-adv-x="182" />
<glyph unicode="&#x2010;" horiz-adv-x="682" d="M84 389v127h512v-127h-512z" />
<glyph unicode="&#x2011;" horiz-adv-x="682" d="M84 389v127h512v-127h-512z" />
<glyph unicode="&#x2012;" horiz-adv-x="682" d="M84 389v127h512v-127h-512z" />
<glyph unicode="&#x2013;" horiz-adv-x="1024" d="M0 403v99h1034v-99h-1034z" />
<glyph unicode="&#x2014;" horiz-adv-x="2048" d="M0 403v99h2048v-99h-2048z" />
<glyph unicode="&#x2018;" horiz-adv-x="569" d="M141 915q0 32 11 51l34 58l242 401l35 -14l-144 -455q-18 -54 -36.5 -85t-57.5 -31q-33 0 -59 20q-25 22 -25 55z" />
<glyph unicode="&#x2019;" horiz-adv-x="569" d="M106 854l144 455q14 49 35.5 82.5t58.5 33.5q33 0 58.5 -20.5t25.5 -54.5q0 -17 -7 -37l-15 -35l-23 -37l-242 -401z" />
<glyph unicode="&#x201c;" horiz-adv-x="909" d="M133 915q0 32 11 51l34 58l242 401l35 -14l-144 -455q-16 -51 -35 -83.5t-59 -32.5q-33 0 -59 20q-25 22 -25 55zM481 915q0 32 11 51l34 58l242 401l35 -14l-144 -455q-18 -54 -36.5 -85t-57.5 -31q-33 0 -59 20q-25 22 -25 55z" />
<glyph unicode="&#x201d;" horiz-adv-x="909" d="M106 854l144 455q14 49 35.5 82.5t58.5 33.5q33 0 58.5 -20.5t25.5 -54.5q0 -17 -7 -37l-15 -35l-23 -37l-242 -401zM455 854l143 455q14 49 35.5 82.5t58.5 33.5q33 0 58.5 -20.5t25.5 -54.5q0 -29 -11 -51l-34 -58l-242 -401z" />
<glyph unicode="&#x2026;" horiz-adv-x="1707" d="M1300 100q0 52 38 87.5t87 35.5q33 0 59 -16.5t44 -45t18 -61.5q0 -47 -36.5 -85t-84.5 -38q-49 0 -87 36.5t-38 86.5zM731 100q0 52 38 87.5t87 35.5q33 0 59 -16.5t44 -45t18 -61.5q0 -47 -36.5 -85t-84.5 -38q-49 0 -87 36.5t-38 86.5zM162 100q0 52 38 87.5t87 35.5 q33 0 59 -16.5t44 -45t18 -61.5q0 -47 -36.5 -85t-84.5 -38q-49 0 -87 36.5t-38 86.5z" />
<glyph unicode="&#x202f;" horiz-adv-x="657" />
<glyph unicode="&#x2039;" horiz-adv-x="1241" d="M100 465v110l1043 480v-127l-877 -408l877 -407v-127z" />
<glyph unicode="&#x203a;" horiz-adv-x="1241" d="M98 -14v127l877 407l-877 408v127l1043 -480v-110z" />
<glyph unicode="&#x205f;" horiz-adv-x="821" />
<glyph unicode="&#x2122;" horiz-adv-x="1946" d="M102 1323v72h627v-72q-146 14 -254 14v-774l-29 4l-24 2l-25 -2l-28 -4v774q-56 0 -118 -3t-149 -11zM877 563l22 146l34 237l39 283l21 166h31q214 -421 344 -637l107 195l135 248l108 194h25l22 -195l25 -226l21 -173q6 -52 12.5 -100.5t19.5 -137.5l-24 3q-11 0 -15 2 l-18 1l-27 -2l-30 -4l-25 281q-9 101 -10.5 117t-9.5 75q-4 38 -8.5 77t-10.5 77q-66 -118 -137 -252q-66 -124 -106 -204q-44 -88 -74 -156h-13l-67 137l-66 131q-36 73 -61 117l-57 109l-62 118l-19 -169l-22 -208l-14 -162l-4 -88l-43 6l-20 -2z" />
<glyph unicode="&#xe000;" horiz-adv-x="975" d="M0 975h975v-975h-975v975z" />
<glyph unicode="&#xfb01;" horiz-adv-x="1138" d="M749 1323q0 43 30.5 73.5t74.5 30.5q41 0 72.5 -30.5t31.5 -73.5q0 -42 -31 -73t-73 -31t-73.5 31t-31.5 73zM772 -6v979l47 -4l35 -2l33 2l49 4v-979l-34 3q-15 0 -22 2l-26 1h-25l-22 -2zM39 895l4 39q0 28 -4 39h141l4 16q18 132 63 253.5t137 205.5t232 84 q-10 -58 -10 -164l-10 -8l-41 20q-28 11 -72 11q-172 0 -172 -213q0 -42 7 -93.5t22 -111.5h209l-4 -39v-14q0 -4 4 -25h-205v-901l-34 3q-15 0 -22 2l-26 1l-28 -1l-23 -2l-31 -3v901h-141z" />
<glyph unicode="&#xfb02;" horiz-adv-x="1138" d="M772 -6v1538l47 -4l35 -2l33 2l49 4v-1538l-34 3q-15 0 -22 2l-26 1h-25l-22 -2zM39 895l4 39q0 28 -4 39h141l4 16q18 132 63 253.5t137 205.5t232 84q-10 -58 -10 -164l-10 -8l-41 20q-28 11 -72 11q-172 0 -172 -213q0 -42 7 -93.5t22 -111.5h209l-4 -39v-14 q0 -4 4 -25h-205v-901l-34 3q-15 0 -22 2l-26 1l-28 -1l-23 -2l-31 -3v901h-141z" />
<glyph unicode="&#xfb03;" horiz-adv-x="1707" d="M1318 1323q0 43 30.5 73.5t74.5 30.5q41 0 72.5 -30.5t31.5 -73.5q0 -42 -31 -73t-73 -31t-73.5 31t-31.5 73zM1341 -6v979l47 -4l35 -2l33 2l49 4v-979l-34 3q-15 0 -22 2l-26 1h-25l-22 -2zM608 895l4 39q0 28 -4 39h141l4 16q18 132 63 253.5t137 205.5t232 84 q-10 -58 -10 -164l-10 -8l-41 20q-28 11 -72 11q-172 0 -172 -213q0 -42 7 -93.5t22 -111.5h209l-4 -39v-14q0 -4 4 -25h-205v-901l-34 3q-15 0 -22 2l-26 1l-28 -1l-23 -2l-31 -3v901h-141zM39 895l4 39q0 28 -4 39h141l4 16q18 132 63 253.5t137 205.5t232 84 q-10 -58 -10 -164l-10 -8l-41 20q-28 11 -72 11q-172 0 -172 -213q0 -42 7 -93.5t22 -111.5h209l-4 -39v-14q0 -4 4 -25h-205v-901l-34 3q-15 0 -22 2l-26 1l-28 -1l-23 -2l-31 -3v901h-141z" />
<glyph unicode="&#xfb04;" horiz-adv-x="1707" d="M1341 -6v1538l47 -4l35 -2l33 2l49 4v-1538l-34 3q-15 0 -22 2l-26 1h-25l-22 -2zM608 895l4 39q0 28 -4 39h141l4 16q18 132 63 253.5t137 205.5t232 84q-10 -58 -10 -164l-10 -8l-41 20q-28 11 -72 11q-172 0 -172 -213q0 -42 7 -93.5t22 -111.5h209l-4 -39v-14 q0 -4 4 -25h-205v-901l-34 3q-15 0 -22 2l-26 1l-28 -1l-23 -2l-31 -3v901h-141zM39 895l4 39q0 28 -4 39h141l4 16q18 132 63 253.5t137 205.5t232 84q-10 -58 -10 -164l-10 -8l-41 20q-28 11 -72 11q-172 0 -172 -213q0 -42 7 -93.5t22 -111.5h209l-4 -39v-14q0 -4 4 -25 h-205v-901l-34 3q-15 0 -22 2l-26 1l-28 -1l-23 -2l-31 -3v901h-141z" />
</font>
</defs>
</svg>
